<?xml version="1.0" encoding="UTF-8" standalone="no"?>
<svg
   class="h-6 md:h-8"
   id="notable-logo"
   version="1.1"
   viewBox="0 0 500 500.00001"
   width="500"
   height="500"
   xmlns="http://www.w3.org/2000/svg"
   xmlns:svg="http://www.w3.org/2000/svg">
  <defs
     id="defs1" />
  <g
     id="g3"
     transform="matrix(3.4266136,0,0,3.4266136,-607.22818,63.702958)">
    <path
       d="m 178.7152,54.367686 c 0,-70.738013 0.71453,-71.452538 71.45254,-71.452538 70.73801,0 71.45254,0.714525 71.45254,71.452538 0,70.738004 -0.71453,71.452534 -71.45254,71.452534 -70.73801,0 -71.45254,-0.71453 -71.45254,-71.452534"
       id="path1"
       style="fill:#181716;fill-opacity:1;stroke-width:0.893157" />
    <g
       id="g2"
       transform="translate(198.43822)">
      <path
         d="M 83.911606,3.3734986 83.770394,39.26944 83.629191,75.163649 52.931713,39.797657 34.867813,18.984597 c 0.0087,0.151119 0.01388,0.302498 0.02615,0.453251 0.07409,0.910618 0.227183,2.14744 0.343426,3.042036 0.04841,0.372555 0.104283,0.743744 0.155152,1.115701 l 19.289429,22.190256 29.247066,33.6401 -0.149924,9.225457 -0.149923,7.778412 -5.51052,-4.863646 c -0.26186,0.996839 -0.55171,1.986394 -0.852468,2.972299 l 8.930841,10.247017 h 0.22489 0.226621 V 54.080339 3.3734629 H 85.280081 Z M 21.868149,4.4299249 V 54.871827 105.31373 h 1.093038 1.094782 L 24.197175,69.56248 24.338382,33.812964 55.267715,69.299246 76.13133,93.23627 c 0.294215,-0.99774 0.568963,-2.001104 0.814114,-3.012393 L 53.846936,63.776525 24.062943,29.676158 l -0.01542,-9.027911 0.01743,-9.58457 0.702269,0.260934 0.669421,0.819344 8.219581,9.455569 c -0.08658,-0.707845 -0.17081,-1.432935 -0.22314,-2.076249 -0.03477,-0.427429 -0.04989,-0.856698 -0.07496,-1.284806 -0.02086,-0.35498 -0.03339,-0.70905 -0.06276,-1.063397 L 22.234243,4.4299249 Z"
         id="path14"
         style="fill:#da614c;fill-opacity:1;stroke:#da614c;stroke-width:8.993;stroke-dasharray:none;stroke-opacity:1" />
      <path
         d="M 67.219185,-0.18422515 V 2.7264278 h 3.273787 c 3.714591,0 6.431598,1.1005046 8.1496,3.3024718 1.3001,1.6252638 1.950677,5.7153304 1.950677,12.2688224 v 61.466554 l 4.176281,28.537864 h 5.315601 V 18.297722 c 0,-5.976779 0.510797,-9.8040009 1.532311,-11.4816834 1.671554,-2.726252 4.503313,-4.0896108 8.496508,-4.0896108 h 3.34351 V -0.18422515 Z M 0.00158724,0.81281233 V 3.7234743 c 2.73950536,0 4.78265966,0.2348136 6.12919656,0.7066707 2.7395054,0.996133 4.8059552,2.0720985 6.1989242,3.225505 1.439401,1.1534157 3.529148,3.538404 6.268655,7.155935 l 0.145628,75.626072 c 0.185203,5.973869 -0.510788,9.803993 -1.532298,11.481693 -1.671563,2.72624 -4.526623,4.08961 -8.5662322,4.08961 H 5.3716749 v 2.91065 H 40.440227 v -2.91065 h -3.343513 c -3.668146,0 -6.385171,-1.10051 -8.149599,-3.30248 -1.253672,-1.62526 -1.73573,-5.716925 -1.879201,-12.268823 L 25.575351,22.277133 23.555659,0.81281233 Z"
         id="text17"
         style="fill:#da614c;fill-opacity:1;stroke:#da614c;stroke-width:1.89618;stroke-dasharray:none;stroke-opacity:1;paint-order:markers stroke fill" />
    </g>
  </g>
</svg>
