<?xml version="1.0" encoding="UTF-8" standalone="no"?>
<!-- Created with Inkscape (http://www.inkscape.org/) -->

<svg
   version="1.1"
   id="svg1"
   width="500.33548"
   height="108.73537"
   viewBox="0 0 500.33548 108.73537"
   sodipodi:docname="Screenshot_07-Nov_20-35-11_22971.png"
   inkscape:version="0.0"
   xmlns:inkscape="http://www.inkscape.org/namespaces/inkscape"
   xmlns:sodipodi="http://sodipodi.sourceforge.net/DTD/sodipodi-0.dtd"
   xmlns="http://www.w3.org/2000/svg"
   xmlns:svg="http://www.w3.org/2000/svg">
  <defs
     id="defs1" />
  <sodipodi:namedview
     id="namedview1"
     pagecolor="#ffffff"
     bordercolor="#000000"
     borderopacity="0.25"
     inkscape:showpageshadow="2"
     inkscape:pageopacity="0.0"
     inkscape:pagecheckerboard="0"
     inkscape:deskcolor="#d1d1d1"
     showgrid="false"
     showguides="false"
     inkscape:zoom="1.5256728"
     inkscape:cx="392.9414"
     inkscape:cy="149.76999"
     inkscape:window-width="1910"
     inkscape:window-height="1039"
     inkscape:window-x="0"
     inkscape:window-y="0"
     inkscape:window-maximized="1"
     inkscape:current-layer="g9">
    <inkscape:page
       x="0"
       y="0"
       width="500.33548"
       height="108.73537"
       id="page2"
       margin="0"
       bleed="0" />
  </sodipodi:namedview>
  <g
     inkscape:groupmode="layer"
     inkscape:label="Image"
     id="g1"
     transform="translate(-66.335487,-121.91343)">
    <g
       id="g9">
      <text
         xml:space="preserve"
         style="font-size:105.54px;line-height:0;font-family:'Operator Mono';-inkscape-font-specification:'Operator Mono, Normal';text-align:end;word-spacing:0px;writing-mode:lr-tb;direction:ltr;text-anchor:end;opacity:1;fill:#908caa;stroke-width:1.65044;paint-order:markers stroke fill"
         x="556.56232"
         y="200.99329"
         id="text16"
         transform="scale(1.029683,0.97117269)"><tspan
           sodipodi:role="line"
           id="tspan16"
           x="556.56232"
           y="200.99329"
           style="font-style:normal;font-variant:normal;font-weight:200;font-stretch:normal;font-family:'Oktah Round';-inkscape-font-specification:'Oktah Round Ultra-Light';stroke-width:1.65044">OTABLE</tspan></text>
      <g
         id="g20"
         transform="matrix(0.89256107,0,0,0.89256107,17.837747,13.098249)">
        <path
           id="path14"
           style="fill:#000000;fill-opacity:1;stroke:#000000;stroke-width:7.55906;stroke-dasharray:none;stroke-opacity:1"
           d="m 148.34766,125.693 -0.15821,40.21679 -0.1582,40.21485 -34.39258,-39.62305 -20.238279,-23.31836 c 0.0097,0.16931 0.01555,0.33891 0.0293,0.50781 0.08301,1.02023 0.254529,2.40593 0.384765,3.40821 0.05424,0.4174 0.116835,0.83327 0.173828,1.25 l 21.611326,24.86133 32.76758,37.68941 -0.16797,10.33594 -0.16797,10.33398 -6.17383,-7.06836 c -0.29338,1.11683 -0.61812,2.2255 -0.95508,3.33008 l 10.00586,11.48047 h 0.25196 0.2539 v -56.8086 -56.81054 h -1.5332 z m -69.511722,1.18359 v 56.51367 56.51367 h 1.224609 1.226562 l 0.158203,-40.05468 0.158204,-40.05274 34.652344,39.75782 23.375,26.81836 c 0.32963,-1.11784 0.63745,-2.24198 0.91211,-3.375 l -25.87891,-29.63086 -33.369138,-38.20508 0.01953,-10.74024 0.01953,-10.73828 0.75,0.91797 0.75,0.91797 9.208985,10.59375 c -0.097,-0.79305 -0.191371,-1.60542 -0.25,-2.32617 -0.03896,-0.47888 -0.05589,-0.95982 -0.08398,-1.43946 -0.02337,-0.39771 -0.03741,-0.7944 -0.07031,-1.1914 l -12.392578,-14.2793 h -0.205078 z"
           sodipodi:nodetypes="ccccccscccccccccccccccccccccccccccccccsccccc" />
        <path
           id="text17"
           style="font-size:169.53px;line-height:0;font-family:'Times New Roman';-inkscape-font-specification:'Times New Roman, ';text-align:end;word-spacing:0px;text-anchor:end;fill:#000000;stroke:#000000;stroke-width:0;paint-order:markers stroke fill"
           d="m 129.64648,121.91343 v 3.25 h 3.66797 c 4.16185,0 7.206,1.22881 9.13086,3.6875 1.45664,1.81475 2.18555,6.38167 2.18555,13.69922 v 68.63281 l 4.67913,31.86504 h 5.95563 V 142.55015 c 0,-6.6736 0.5723,-10.94703 1.71681,-12.82031 1.87282,-3.0441 5.04554,-4.56641 9.51953,-4.56641 h 3.74609 v -3.25 z m -75.310994,1.11328 v 3.25001 c 3.069358,0 5.35852,0.26219 6.867188,0.78906 3.069358,1.11227 5.384621,2.31368 6.945312,3.60156 1.612713,1.28789 3.954078,3.95094 7.023437,7.99023 l 0.163163,84.44316 c 0.207502,6.67035 -0.57229,10.94702 -1.716797,12.82031 -1.872828,3.0441 -5.071653,4.56641 -9.597656,4.56641 h -3.667969 v 3.25 h 39.291013 v -3.25 h -3.746092 c -4.109813,0 -7.153983,-1.22881 -9.130858,-3.6875 -1.404622,-1.81475 -1.944722,-6.38345 -2.105469,-13.69922 l -1.672276,-76.10722 -2.262875,-23.9668 z"
           sodipodi:nodetypes="ccscscccscsccccccccccsccccscsccc" />
      </g>
    </g>
  </g>
</svg>
