<svg id="upload_splash" version="1.1" viewBox="0 0 1496 1496" xmlns="http://www.w3.org/2000/svg" xmlns:inkscape="http://www.inkscape.org/namespaces/inkscape" xmlns:sodipodi="http://sodipodi.sourceforge.net/DTD/sodipodi-0.dtd" xmlns:svg="http://www.w3.org/2000/svg">
  <path d="M 0,1496 H 1496 V 3.74e-5 H 0 Z" id="path2" style="fill:#e9a094;fill-opacity:1;fill-rule:nonzero;stroke:none;stroke-width:0.133333"></path>
  <g id="g2" transform="translate(-63.659827,29.250966)">
    <path d="m 1046.716,1270.3747 c -52.94402,0 -105.96269,-11.7 -146.48802,-35.0987 L 629.53199,1078.9907 c -81.068,-46.8053 -81.488,-122.68802 -0.95467,-169.48935 40.26667,-23.4 93.148,-35.1 146.09733,-35.1 52.95067,0 105.968,11.70133 146.50133,35.10267 l 270.69732,156.28668 c 81.06,46.8013 81.488,122.68 0.9533,169.4813 -40.2706,23.4027 -93.1533,35.104 -146.1106,35.1027" id="path3" style="fill:#bd432e;fill-opacity:1;fill-rule:nonzero;stroke:none;stroke-width:0.133333"></path>
    <path d="m 857.33732,593.64536 c -0.44267,-0.23333 -0.884,-0.46133 -1.324,-0.68667 -0.34134,-0.17333 -0.68534,-0.36133 -1.02534,-0.52933 -0.54533,-0.27067 -1.08666,-0.51333 -1.62933,-0.768 -0.39067,-0.18533 -0.78267,-0.376 -1.172,-0.552 -0.16,-0.0733 -0.32267,-0.15733 -0.48133,-0.228 -1.08667,-0.48533 -2.16534,-0.94267 -3.23867,-1.37333 l -0.0107,-0.004 c -1.096,-0.44 -2.18533,-0.84934 -3.26666,-1.22934 -0.14134,-0.0493 -0.28,-0.0893 -0.42,-0.13733 -0.392,-0.13467 -0.78,-0.25467 -1.16934,-0.38267 -0.552,-0.18133 -1.10933,-0.376 -1.65733,-0.54133 -0.27467,-0.084 -0.54267,-0.14667 -0.816,-0.22533 -0.47867,-0.13867 -0.95467,-0.26667 -1.43067,-0.39467 -0.36666,-0.0973 -0.73866,-0.21333 -1.104,-0.30533 -0.384,-0.0947 -0.76,-0.16534 -1.14133,-0.25334 -0.47733,-0.10933 -0.952,-0.21866 -1.424,-0.316 -0.25067,-0.052 -0.50667,-0.12 -0.75733,-0.168 -0.44667,-0.088 -0.884,-0.144 -1.328,-0.21866 -0.548,-0.096 -1.09734,-0.19334 -1.64,-0.27067 -0.192,-0.028 -0.38934,-0.0707 -0.58,-0.096 -0.45334,-0.0613 -0.89334,-0.088 -1.34267,-0.13733 -0.58533,-0.064 -1.17067,-0.13334 -1.74933,-0.17867 -0.17067,-0.0133 -0.34534,-0.04 -0.51467,-0.052 -0.39467,-0.028 -0.77733,-0.02 -1.16933,-0.0387 -0.69067,-0.0333 -1.38,-0.0627 -2.06,-0.068 -0.19067,-0.001 -0.388,-0.02 -0.57867,-0.02 -0.75333,0.004 -1.50133,0.0267 -2.24133,0.064 l -0.284,0.02 c -0.56267,0.0307 -1.124,0.064 -1.67734,0.116 -0.35333,0.032 -0.69733,0.0827 -1.048,0.12267 -0.264,0.032 -0.528,0.0587 -0.79066,0.0947 -0.956,0.12666 -1.904,0.27466 -2.83334,0.46 l -0.0853,0.02 c -0.256,0.052 -0.50133,0.124 -0.75467,0.18 -0.772,0.172 -1.54,0.35066 -2.292,0.564 -0.36933,0.104 -0.72666,0.228 -1.09066,0.34133 -0.48134,0.152 -0.96934,0.28667 -1.44267,0.45333 l -0.35067,0.144 c -0.728,0.26534 -1.43866,0.56667 -2.14533,0.87334 -0.344,0.14933 -0.696,0.28266 -1.03467,0.44133 -1.03466,0.48267 -2.04666,1.004 -3.032,1.57733 l -9.39733,5.46 c 0.984,-0.57066 1.99867,-1.092 3.03067,-1.576 0.34,-0.15866 0.69333,-0.292 1.03733,-0.44133 0.70667,-0.308 1.416,-0.60667 2.144,-0.87467 0.58933,-0.21466 1.19067,-0.40666 1.79333,-0.596 0.36267,-0.11333 0.72134,-0.23866 1.09067,-0.34266 0.752,-0.212 1.52,-0.392 2.292,-0.564 0.25333,-0.056 0.5,-0.12667 0.75467,-0.17734 0.95733,-0.196 1.93333,-0.35066 2.91866,-0.48266 0.26267,-0.0347 0.52667,-0.0627 0.792,-0.0933 0.89734,-0.10266 1.804,-0.18933 2.724,-0.24 l 0.284,-0.0187 c 0.928,-0.0467 1.872,-0.0507 2.82,-0.044 0.68,0.004 1.36934,0.036 2.06,0.0667 0.56,0.028 1.11734,0.0467 1.684,0.092 0.57734,0.0453 1.164,0.11467 1.74934,0.17867 0.63866,0.0707 1.276,0.14 1.92266,0.232 0.54267,0.0787 1.092,0.176 1.64134,0.27067 0.69066,0.11866 1.384,0.24266 2.084,0.38666 0.472,0.0987 0.948,0.208 1.424,0.31734 0.744,0.172 1.49333,0.35733 2.24666,0.55866 0.47467,0.12667 0.95067,0.256 1.42934,0.39467 0.82,0.236 1.64533,0.496 2.47333,0.768 0.38933,0.12533 0.77733,0.24533 1.168,0.38133 2.436,0.84134 4.90933,1.83067 7.41867,2.97067 0.38933,0.176 0.78133,0.368 1.172,0.552 0.88,0.416 1.76533,0.84667 2.65466,1.29867 0.44,0.22533 0.88267,0.45333 1.32534,0.68666 1.17733,0.62267 2.35866,1.25867 3.54933,1.94667 l 9.39733,-5.46133 c -0.86133,-0.49867 -1.72133,-0.97867 -2.57866,-1.44267 -0.32534,-0.176 -0.64667,-0.332 -0.972,-0.504" id="path4" style="fill:#b6bcde;fill-opacity:1;fill-rule:nonzero;stroke:none;stroke-width:0.133333"></path>
    <path d="m 1301.912,936.92935 c -0.01,-0.18533 -0.019,-0.372 -0.027,-0.55733 -0.013,-0.39734 -0.035,-0.79734 -0.055,-1.196 -0.024,-0.46534 -0.036,-0.92934 -0.067,-1.39734 -0.021,-0.35733 -0.059,-0.71866 -0.084,-1.07733 -0.032,-0.42 -0.064,-0.84133 -0.1014,-1.26267 -0.024,-0.276 -0.04,-0.55066 -0.065,-0.828 -0.057,-0.59733 -0.1333,-1.19866 -0.2013,-1.79733 -0.039,-0.35067 -0.072,-0.69867 -0.116,-1.04933 l -0.039,-0.344 c -0.1373,-1.08667 -0.2933,-2.17867 -0.464,-3.272 l -0.013,-0.0707 c -0.025,-0.16133 -0.057,-0.32267 -0.084,-0.484 -0.148,-0.912 -0.3014,-1.82267 -0.472,-2.73733 -0.032,-0.164 -0.069,-0.328 -0.1,-0.492 -0.085,-0.43734 -0.1774,-0.87467 -0.268,-1.312 -0.108,-0.532 -0.2067,-1.06134 -0.3227,-1.59334 -0.065,-0.29466 -0.14,-0.592 -0.2067,-0.888 -0.108,-0.476 -0.22,-0.952 -0.3333,-1.42933 -0.088,-0.364 -0.1653,-0.72933 -0.2547,-1.09467 -0.1093,-0.43733 -0.232,-0.876 -0.3453,-1.316 -0.1253,-0.48 -0.2493,-0.95866 -0.3787,-1.44 -0.064,-0.23333 -0.12,-0.46666 -0.184,-0.7 -0.1733,-0.624 -0.3653,-1.24933 -0.5466,-1.872 -0.12,-0.40933 -0.2347,-0.82 -0.36,-1.228 l -0.099,-0.34133 c -0.3453,-1.124 -0.704,-2.24667 -1.08,-3.368 l -0.013,-0.04 -0.1107,-0.31467 c -0.3333,-0.98933 -0.676,-1.97733 -1.0333,-2.96533 -0.057,-0.15733 -0.1187,-0.312 -0.1774,-0.46933 -0.136,-0.37334 -0.28,-0.74667 -0.42,-1.12134 -0.2,-0.532 -0.3946,-1.06666 -0.6,-1.59866 -0.1333,-0.34 -0.2746,-0.67867 -0.4106,-1.01867 -0.164,-0.41333 -0.3307,-0.82533 -0.4987,-1.23867 -0.1227,-0.30133 -0.24,-0.60533 -0.364,-0.90666 -0.2507,-0.60134 -0.512,-1.19734 -0.7693,-1.796 -0.14,-0.324 -0.276,-0.648 -0.4174,-0.972 l -0.144,-0.336 c -0.4653,-1.052 -0.9426,-2.10134 -1.4333,-3.14534 l -0.063,-0.13066 c -0.1426,-0.304 -0.2933,-0.604 -0.4386,-0.90534 -0.3827,-0.80266 -0.764,-1.604 -1.1614,-2.40133 -0.063,-0.12667 -0.1306,-0.25067 -0.1946,-0.37733 -0.328,-0.65467 -0.6707,-1.30534 -1.0107,-1.956 -0.272,-0.52534 -0.5347,-1.05467 -0.8133,-1.57734 l -0.1587,-0.28133 c -0.9067,-1.68933 -1.8467,-3.36133 -2.816,-5.01733 -0.08,-0.14134 -0.1547,-0.28534 -0.2373,-0.42534 -0.248,-0.42133 -0.5094,-0.83333 -0.7614,-1.25066 -0.4053,-0.67867 -0.8133,-1.356 -1.2306,-2.02667 -0.372,-0.59867 -0.752,-1.192 -1.132,-1.78533 -0.424,-0.66267 -0.848,-1.324 -1.2814,-1.97867 -0.144,-0.21733 -0.28,-0.44 -0.4253,-0.656 -0.1373,-0.20533 -0.2867,-0.40133 -0.4253,-0.60667 -1.2027,-1.78133 -2.428,-3.54533 -3.6974,-5.26666 v -0.003 l -0.036,-0.0453 c -0.896,-1.216 -1.8093,-2.412 -2.736,-3.59467 l -0.1227,-0.16133 c -0.684,-0.868 -1.38,-1.72133 -2.0813,-2.57067 -0.136,-0.16666 -0.268,-0.336 -0.4053,-0.50133 l -0.025,-0.032 c -0.828,-0.996 -1.668,-1.97733 -2.5173,-2.94533 l -0.1267,-0.14 c -0.2626,-0.29734 -0.5293,-0.58534 -0.7933,-0.88 -0.536,-0.59867 -1.0707,-1.20134 -1.6147,-1.788 l -0.3093,-0.32534 c -0.372,-0.39733 -0.7493,-0.78533 -1.1227,-1.17733 -0.412,-0.43067 -0.8186,-0.868 -1.2333,-1.29067 -0.1533,-0.156 -0.3107,-0.30666 -0.4667,-0.46133 -0.404,-0.408 -0.8146,-0.80933 -1.2253,-1.212 -0.352,-0.34667 -0.6987,-0.70133 -1.0547,-1.04267 -0.2013,-0.19333 -0.4066,-0.37466 -0.6093,-0.56666 -0.44,-0.416 -0.884,-0.82667 -1.328,-1.236 -0.3093,-0.284 -0.6133,-0.57867 -0.924,-0.85867 -0.244,-0.22 -0.4933,-0.428 -0.7373,-0.644 -0.4454,-0.39467 -0.892,-0.784 -1.3414,-1.16933 -0.2733,-0.23467 -0.5426,-0.48134 -0.8173,-0.71334 -0.296,-0.24933 -0.5973,-0.484 -0.8947,-0.73066 -0.4386,-0.36267 -0.8786,-0.724 -1.3213,-1.07867 -0.228,-0.184 -0.4533,-0.376 -0.6827,-0.55733 -0.372,-0.29334 -0.7506,-0.57067 -1.1253,-0.85867 -0.4107,-0.31467 -0.8213,-0.632 -1.2333,-0.94133 -0.168,-0.12534 -0.332,-0.25734 -0.5,-0.38134 -0.504,-0.37066 -1.0147,-0.72133 -1.5227,-1.08 -0.348,-0.248 -0.692,-0.5 -1.0413,-0.74266 l -0.268,-0.19067 c -0.9174,-0.628 -1.8411,-1.23559 -2.768,-1.828 l -0.023,-0.0147 -0.2067,-0.12666 c -0.8386,-0.53067 -1.68,-1.048 -2.5266,-1.54667 -0.2134,-0.12533 -0.4267,-0.25067 -0.64,-0.37333 l -28.152,-16.25334 c -0.039,-0.14266 -0.077,-0.284 -0.1187,-0.424 -0.1307,-0.47866 -0.2813,-0.95466 -0.4173,-1.43333 -0.324,-1.13733 -0.6507,-2.276 -0.9974,-3.41333 -0.04,-0.13734 -0.077,-0.272 -0.1186,-0.408 -0.1667,-0.544 -0.352,-1.08667 -0.524,-1.632 -0.3094,-0.984 -0.6187,-1.968 -0.9454,-2.95067 -0.064,-0.192 -0.12,-0.38533 -0.184,-0.576 -0.18,-0.53467 -0.376,-1.06933 -0.56,-1.604 -0.3146,-0.91867 -0.632,-1.836 -0.96,-2.75467 -0.084,-0.236 -0.1626,-0.47333 -0.248,-0.71066 -0.1933,-0.53067 -0.4013,-1.06134 -0.5986,-1.592 -0.3107,-0.83734 -0.6214,-1.676 -0.944,-2.512 -0.1,-0.25734 -0.1907,-0.51734 -0.2907,-0.776 -0.2053,-0.52534 -0.424,-1.04667 -0.632,-1.57067 -0.3227,-0.80933 -0.644,-1.61867 -0.976,-2.42667 -0.1093,-0.264 -0.2107,-0.52933 -0.3213,-0.796 -0.2187,-0.52533 -0.452,-1.048 -0.6747,-1.572 -0.332,-0.784 -0.664,-1.568 -1.0053,-2.34933 -0.1147,-0.26267 -0.2227,-0.528 -0.3387,-0.79067 -0.22,-0.49866 -0.4547,-0.99333 -0.6787,-1.49066 -0.38,-0.84534 -0.7613,-1.69067 -1.1533,-2.532 -0.1293,-0.28 -0.252,-0.56267 -0.3827,-0.84134 -0.204,-0.43466 -0.4213,-0.864 -0.6266,-1.296 -0.4534,-0.952 -0.912,-1.90266 -1.3774,-2.84933 -0.164,-0.33333 -0.32,-0.66933 -0.4866,-1.00267 -0.1627,-0.32666 -0.3387,-0.64933 -0.5027,-0.976 -0.604,-1.19733 -1.2187,-2.38933 -1.8427,-3.57866 -0.2026,-0.384 -0.392,-0.77334 -0.5973,-1.156 -0.1187,-0.22667 -0.2453,-0.44934 -0.3667,-0.67467 -0.3906,-0.728 -0.7893,-1.45067 -1.188,-2.17467 -0.428,-0.78 -0.856,-1.56 -1.2933,-2.336 -0.404,-0.71733 -0.8173,-1.43066 -1.2293,-2.144 -0.2974,-0.51466 -0.5867,-1.03466 -0.8867,-1.548 -0.108,-0.184 -0.224,-0.36266 -0.332,-0.54533 -1.1573,-1.96 -2.3387,-3.90533 -3.5493,-5.83067 -0.208,-0.328 -0.4214,-0.65333 -0.6294,-0.98133 -1.0626,-1.67067 -2.1466,-3.32667 -3.248,-4.96667 -0.1826,-0.27333 -0.356,-0.55466 -0.54,-0.82666 -0.1733,-0.256 -0.3533,-0.50534 -0.5253,-0.76 -0.4427,-0.64534 -0.8867,-1.28667 -1.3333,-1.92667 -0.52,-0.74667 -1.0427,-1.48933 -1.5694,-2.228 -0.4533,-0.63333 -0.9106,-1.264 -1.3706,-1.89333 -0.3,-0.412 -0.5947,-0.83334 -0.8987,-1.24267 -0.1693,-0.23067 -0.348,-0.452 -0.5187,-0.68133 -1.0866,-1.45867 -2.1893,-2.90267 -3.3053,-4.33067 -0.1453,-0.18667 -0.2853,-0.37867 -0.432,-0.56533 l -0.112,-0.14 c -1.1707,-1.48267 -2.356,15.05333 -3.5587,13.60533 l -0.1613,-0.2 c -0.2893,-0.348 -0.5867,-0.68266 -0.8787,-1.02666 -0.836,-0.992 -1.6733,-1.98134 -2.524,-2.95334 -0.1293,-0.14933 -0.256,-0.30533 -0.388,-0.45333 -0.3186,-0.364 -0.648,-0.71467 -0.9693,-1.07733 -0.7667,-0.86 -1.5347,-1.716 -2.312,-2.56134 -0.2067,-0.224 -0.4067,-0.456 -0.6133,-0.67866 -0.2827,-0.30534 -0.5734,-0.59734 -0.8574,-0.89867 -0.7746,-0.82533 -1.5546,-1.644 -2.34,-2.452 -0.2786,-0.28667 -0.5506,-0.584 -0.8306,-0.86933 -0.2134,-0.21867 -0.4347,-0.42667 -0.6494,-0.644 -0.8666,-0.87334 -1.7386,-1.73334 -2.6146,-2.58534 -0.3227,-0.31333 -0.6387,-0.64 -0.9627,-0.95066 -0.1253,-0.12134 -0.2547,-0.23467 -0.3813,-0.356 -1.168,-1.11467 -2.3467,-2.208 -3.532,-3.28534 -0.1507,-0.13466 -0.2974,-0.28 -0.4467,-0.41466 l -0.059,-0.0507 c -1.352,-1.21733 -2.7173,-2.40533 -4.092,-3.57067 l -0.2733,-0.23866 c -0.332,-0.27867 -0.6694,-0.54 -1.0014,-0.81734 -0.9506,-0.78933 -1.9013,-1.572 -2.8613,-2.336 -0.196,-0.15466 -0.3853,-0.31866 -0.5813,-0.47333 -0.3387,-0.26667 -0.6814,-0.516 -1.0214,-0.77867 -0.8346,-0.64933 -1.672,-1.28933 -2.5146,-1.91733 -0.2787,-0.208 -0.5534,-0.42933 -0.8334,-0.63467 -0.288,-0.21333 -0.5813,-0.40933 -0.8693,-0.61866 -0.7933,-0.576 -1.5907,-1.14134 -2.388,-1.69867 -0.3467,-0.24 -0.688,-0.49733 -1.036,-0.73333 -0.2347,-0.16267 -0.4733,-0.31067 -0.7093,-0.46934 -0.78,-0.52933 -1.564,-1.04266 -2.3494,-1.55333 -0.4,-0.25867 -0.7933,-0.53333 -1.1946,-0.78933 -0.1894,-0.12 -0.3814,-0.23067 -0.572,-0.35067 -0.756,-0.47467 -1.5174,-0.93467 -2.2774,-1.39333 -0.4466,-0.27067 -0.8893,-0.55467 -1.3386,-0.82 -0.3227,-0.18934 -0.6467,-0.37867 -0.9707,-0.56667 -1.0587,-0.61067 -2.1133,-1.2 -3.164,-1.76933 l -0.095,-0.0493 c -1.2507,-0.67466 -2.4947,-1.31733 -3.7347,-1.93333 l -0.224,-0.116 c -0.2773,-0.136 -0.5506,-0.25467 -0.828,-0.39067 -0.8933,-0.432 -1.784,-0.85466 -2.6706,-1.25733 -0.1694,-0.0773 -0.3414,-0.16533 -0.5107,-0.24133 -0.268,-0.12 -0.532,-0.22134 -0.7973,-0.33867 -0.82,-0.35867 -1.636,-0.70533 -2.4494,-1.03867 -0.248,-0.10133 -0.5013,-0.21866 -0.7493,-0.31733 -0.1867,-0.0747 -0.3693,-0.136 -0.5547,-0.21067 -0.8946,-0.35066 -1.784,-0.68266 -2.6706,-1.00533 -0.26,-0.0933 -0.5227,-0.20133 -0.7814,-0.292 l -0.2346,-0.0773 c -1.2307,-0.43067 -2.4547,-0.832 -3.6694,-1.20134 l -0.1386,-0.0453 c -0.9454,-0.28533 -1.888,-0.55333 -2.824,-0.804 -0.035,-0.124 -0.068,-0.248 -0.104,-0.372 -0.1427,-0.51867 -0.3054,-1.03733 -0.4534,-1.55467 -0.4026,-1.41866 -0.8093,-2.83466 -1.2413,-4.25333 -0.044,-0.14133 -0.081,-0.284 -0.124,-0.42533 -0.2,-0.65067 -0.4213,-1.30134 -0.6267,-1.952 -0.372,-1.18134 -0.7426,-2.36 -1.1346,-3.54 -0.069,-0.208 -0.132,-0.41867 -0.2014,-0.628 -0.2173,-0.64667 -0.4546,-1.29334 -0.6773,-1.94 -0.3773,-1.096 -0.7533,-2.192 -1.1453,-3.288 -0.093,-0.26 -0.18,-0.52267 -0.2734,-0.784 -0.2373,-0.65067 -0.4906,-1.29867 -0.7333,-1.94934 -0.3667,-0.99066 -0.7347,-1.98 -1.1147,-2.968 -0.1106,-0.28666 -0.212,-0.57466 -0.324,-0.86133 -0.2506,-0.64533 -0.52,-1.28667 -0.776,-1.92933 -0.3813,-0.96 -0.7626,-1.91734 -1.156,-2.87334 -0.1213,-0.296 -0.2346,-0.59466 -0.3586,-0.88933 -0.2667,-0.644 -0.552,-1.28267 -0.824,-1.92533 -0.396,-0.932 -0.7907,-1.86534 -1.1974,-2.79467 -0.1293,-0.29467 -0.2493,-0.592 -0.3786,-0.884 -0.2694,-0.60667 -0.5547,-1.20933 -0.8267,-1.81333 -0.4507,-1.004 -0.9027,-2.00667 -1.368,-3.00667 -0.1453,-0.31333 -0.2827,-0.63067 -0.4293,-0.94533 -0.248,-0.52534 -0.5107,-1.04667 -0.7627,-1.572 -0.5373,-1.128 -1.0787,-2.25467 -1.632,-3.376 -0.1867,-0.37867 -0.3613,-0.75867 -0.548,-1.13467 -0.2013,-0.40267 -0.4173,-0.8 -0.62,-1.20133 -0.7013,-1.392 -1.416,-2.77734 -2.1413,-4.15867 -0.2374,-0.45333 -0.4614,-0.912 -0.7027,-1.36533 -0.1587,-0.3 -0.3267,-0.59467 -0.488,-0.89467 -0.4507,-0.84267 -0.912,-1.67867 -1.3707,-2.516 -0.5146,-0.93733 -1.032,-1.87467 -1.5573,-2.80667 -0.4693,-0.83333 -0.9467,-1.66133 -1.4253,-2.49066 -0.328,-0.568 -0.6454,-1.14134 -0.976,-1.70667 -0.144,-0.24267 -0.2974,-0.48 -0.44,-0.724 -1.384,-2.344 -2.7934,-4.672 -4.24,-6.97467 -0.2014,-0.32 -0.412,-0.636 -0.6147,-0.956 -1.3,-2.048 -2.6267,-4.07466 -3.9733,-6.08666 -0.2147,-0.31734 -0.4147,-0.64534 -0.628,-0.96134 -0.2254,-0.33199 -0.4574,-0.65599 -0.684,-0.98666 -0.5294,-0.77867 -1.068,-1.54933 -1.6054,-2.32133 -0.6093,-0.876 -1.2213,-1.748 -1.8413,-2.61334 -0.548,-0.76666 -1.1,-1.53066 -1.6547,-2.29066 -0.34,-0.46534 -0.6706,-0.93734 -1.012,-1.4 -0.2066,-0.28 -0.424,-0.54934 -0.632,-0.828 -1.276,-1.71334 -2.568,-3.40934 -3.88,-5.084 -0.188,-0.24134 -0.3693,-0.49334 -0.5573,-0.73334 l -0.16,-0.19466 c -1.3933,-1.76667 -2.8053,-3.512 -4.2347,-5.23334 l -0.184,-0.22533 c -0.344,-0.41467 -0.6986,-0.81333 -1.044,-1.22267 -0.9906,-1.176 -1.9866,-2.348 -2.9933,-3.50133 -0.1507,-0.17067 -0.2947,-0.34933 -0.444,-0.52 -0.3827,-0.43467 -0.7747,-0.852 -1.1587,-1.28267 -0.9093,-1.024 -1.824,-2.04 -2.7466,-3.044 -0.2387,-0.26133 -0.472,-0.52933 -0.7107,-0.788 -0.3387,-0.364 -0.6867,-0.71333 -1.0267,-1.076 -0.9213,-0.98133 -1.848,-1.95333 -2.7813,-2.91466 -0.3267,-0.336 -0.6453,-0.68667 -0.9733,-1.02134 -0.2614,-0.264 -0.5294,-0.51733 -0.7894,-0.78 -1.0213,-1.03066 -2.0506,-2.044 -3.0853,-3.05066 -0.384,-0.372 -0.7587,-0.76 -1.1427,-1.13067 -0.1533,-0.14667 -0.312,-0.28533 -0.4666,-0.43333 -1.3587,-1.296 -2.7294,-2.56934 -4.1107,-3.82267 -0.2013,-0.184 -0.3973,-0.376 -0.6,-0.55867 l -0.083,-0.072 c -1.6027,-1.444 -3.2227,-2.852 -4.8547,-4.23466 l -0.3146,-0.27467 c -0.388,-0.328 -0.7867,-0.636 -1.176,-0.96 -1.136,-0.944 -2.2734,-1.88 -3.4214,-2.79333 -0.2266,-0.18134 -0.4493,-0.37334 -0.6773,-0.55334 -0.4,-0.31466 -0.808,-0.60933 -1.2093,-0.92 -0.99602,-0.77466 -1.99602,-1.54 -3.00002,-2.288 -0.328,-0.24533 -0.64933,-0.504 -0.97733,-0.74533 -0.34134,-0.25067 -0.68934,-0.48533 -1.03067,-0.73467 -0.944,-0.684 -1.892,-1.356 -2.84267,-2.01866 -0.40933,-0.28534 -0.812,-0.588 -1.22133,-0.868 -0.28,-0.192 -0.56533,-0.368 -0.84533,-0.55734 -0.924,-0.62666 -1.85467,-1.236 -2.78534,-1.84133 -0.47333,-0.308 -0.94266,-0.63467 -1.41733,-0.936 -0.22667,-0.14533 -0.456,-0.27733 -0.68267,-0.41867 -0.896,-0.56533 -1.79733,-1.108 -2.69866,-1.652 -0.53067,-0.32 -1.056,-0.66 -1.58934,-0.97333 -0.384,-0.22667 -0.76933,-0.45067 -1.15466,-0.67333 -1.15467,-0.66667 -2.30667,-1.30667 -3.45467,-1.932 l -0.30133,-0.168 c -0.17067,-0.0933 -0.34134,-0.17467 -0.51467,-0.268 -1.28667,-0.68934 -2.56667,-1.35334 -3.84267,-1.98934 -0.15866,-0.08 -0.32,-0.17066 -0.48,-0.24933 l -0.20933,-0.0987 c -1.39467,-0.68666 -2.78267,-1.33733 -4.164,-1.96266 -0.13333,-0.06 -0.27067,-0.12934 -0.404,-0.18934 -0.17333,-0.0787 -0.34533,-0.144 -0.51867,-0.22 -1.38933,-0.61466 -2.772,-1.208 -4.14666,-1.76 l -0.0547,-0.0227 -0.0133,-0.004 c -1.42934,-0.57334 -2.84534,-1.09867 -4.25734,-1.60267 -0.16533,-0.0587 -0.33333,-0.12933 -0.49866,-0.188 -0.124,-0.0427 -0.24534,-0.0773 -0.37067,-0.12133 -1.376,-0.47867 -2.74667,-0.928 -4.10533,-1.34134 l -0.25334,-0.084 c -0.148,-0.044 -0.29333,-0.0773 -0.44266,-0.12133 -1.43867,-0.428 -2.86934,-0.828 -4.28667,-1.18267 l -0.14267,-0.04 -0.0427,-0.0107 c -1.49334,-0.37067 -2.97067,-0.692 -4.44,-0.98534 -0.14134,-0.0267 -0.28667,-0.068 -0.428,-0.0947 -0.14,-0.028 -0.27734,-0.048 -0.41734,-0.0747 -0.384,-0.072 -0.76666,-0.13867 -1.14933,-0.20667 -0.50533,-0.088 -1.01067,-0.176 -1.512,-0.25466 -0.38533,-0.0613 -0.76933,-0.11734 -1.152,-0.17334 -0.28,-0.0413 -0.56267,-0.0893 -0.84133,-0.12666 -0.20134,-0.028 -0.39867,-0.0453 -0.6,-0.0707 -0.444,-0.0573 -0.88667,-0.10933 -1.328,-0.15733 -0.45334,-0.0507 -0.90534,-0.0987 -1.35467,-0.14 -0.44,-0.0427 -0.87867,-0.08 -1.316,-0.11334 -0.244,-0.02 -0.492,-0.0467 -0.73733,-0.0627 -0.18934,-0.0133 -0.37467,-0.0173 -0.564,-0.0293 -0.49467,-0.0307 -0.98667,-0.0547 -1.476,-0.0747 -0.41333,-0.0173 -0.82533,-0.0347 -1.236,-0.0453 -0.488,-0.012 -0.97333,-0.0173 -1.45867,-0.02 -0.26533,-0.003 -0.53466,-0.0133 -0.79866,-0.012 -0.128,0 -0.252,0.008 -0.37867,0.009 -0.65867,0.007 -1.31333,0.0253 -1.964,0.0493 -0.284,0.0107 -0.56933,0.016 -0.852,0.028 -0.928,0.0467 -1.85067,0.10667 -2.764,0.18933 l -0.0333,0.001 -0.15334,0.0187 c -0.97733,0.0893 -1.94266,0.20534 -2.90266,0.33734 -0.28934,0.04 -0.57734,0.0827 -0.86534,0.12533 -0.82,0.124 -1.63333,0.26267 -2.44,0.41733 -0.152,0.028 -0.30933,0.048 -0.46,0.0773 l -0.13733,0.0333 c -1.23067,0.24533 -2.44133,0.53467 -3.63867,0.852 -0.21466,0.056 -0.428,0.112 -0.64,0.17067 -1.17333,0.32533 -2.328,0.68266 -3.468,1.07466 l -0.25466,0.08 c -0.19467,0.0667 -0.384,0.14667 -0.57867,0.216 -0.5,0.18 -0.99733,0.36667 -1.492,0.56134 -0.31333,0.12266 -0.62667,0.248 -0.93733,0.37733 -0.49334,0.20267 -0.98134,0.41467 -1.46667,0.63067 -0.29467,0.132 -0.592,0.26266 -0.884,0.39866 -0.52267,0.244 -1.03867,0.49867 -1.552,0.75867 -0.244,0.12267 -0.492,0.24 -0.73333,0.368 -0.75067,0.392 -1.49334,0.79733 -2.224,1.22133 l -234.932,136.528 c 0.73067,-0.42533 1.47334,-0.83067 2.224,-1.22133 0.24267,-0.128 0.49067,-0.24534 0.73467,-0.36934 0.51333,-0.25866 1.028,-0.51466 1.54933,-0.75733 0.29333,-0.13733 0.59067,-0.26667 0.88667,-0.39867 0.48533,-0.216 0.97333,-0.428 1.46533,-0.632 0.31067,-0.128 0.62267,-0.25333 0.93733,-0.37733 0.49467,-0.19333 0.992,-0.38 1.49334,-0.56133 0.27733,-0.0987 0.55333,-0.19867 0.832,-0.29467 1.13866,-0.392 2.296,-0.74933 3.468,-1.07467 0.212,-0.0587 0.42666,-0.11466 0.64,-0.17066 1.196,-0.31734 2.408,-0.60667 3.63733,-0.85334 0.19867,-0.04 0.4,-0.072 0.59867,-0.11066 0.808,-0.15467 1.62133,-0.292 2.44133,-0.416 0.288,-0.0427 0.57467,-0.0867 0.864,-0.12667 0.92933,-0.12667 1.868,-0.23867 2.816,-0.32667 l -116.544,67.72667 c 0.98534,-0.572 1.99867,-1.092 3.032,-1.57733 0.33867,-0.15867 0.69067,-0.29067 1.03334,-0.44 0.708,-0.30534 1.41866,-0.608 2.14666,-0.87334 0.59067,-0.216 1.192,-0.408 1.79467,-0.596 0.364,-0.11466 0.72133,-0.24 1.08933,-0.34266 0.75467,-0.21334 1.524,-0.39467 2.29867,-0.56534 0.25067,-0.056 0.49467,-0.12666 0.748,-0.17866 0.95733,-0.19334 1.93333,-0.34934 2.92,-0.48 0.26267,-0.036 0.528,-0.064 0.792,-0.0933 0.9,-0.10533 1.808,-0.19066 2.72933,-0.24133 l 0.27734,-0.02 c 0.928,-0.0453 1.872,-0.0507 2.82,-0.0427 0.68133,0.005 1.37333,0.0347 2.06533,0.068 0.55867,0.0253 1.11467,0.0467 1.67867,0.0907 0.58,0.0453 1.16666,0.11333 1.752,0.17867 0.63866,0.0707 1.276,0.13866 1.92133,0.23333 0.544,0.0773 1.09333,0.176 1.64133,0.26933 0.692,0.12 1.384,0.24267 2.084,0.388 0.472,0.0973 0.948,0.20667 1.42534,0.316 0.744,0.172 1.492,0.35734 2.244,0.55867 0.47733,0.12667 0.95333,0.25733 1.43333,0.39467 0.81733,0.23733 1.64133,0.49466 2.46933,0.76533 0.39067,0.12933 0.77867,0.24933 1.172,0.384 2.43467,0.84133 4.90934,1.83067 7.41734,2.97067 0.388,0.17733 0.78,0.36666 1.16933,0.55066 0.88267,0.416 1.76933,0.84934 2.66,1.30267 0.43733,0.22267 0.876,0.44933 1.316,0.68133 1.18,0.62267 2.36267,1.26134 3.55467,1.948 v 0 l 108.17333,-62.86266 c 0.47733,0.22933 0.95066,0.43866 1.43066,0.67466 0.22667,0.112 0.456,0.22934 0.684,0.344 1.276,0.63734 2.55867,1.30267 3.84534,1.99334 0.272,0.14533 0.544,0.28533 0.816,0.43466 1.148,0.624 2.29866,1.26534 3.45466,1.932 0.92,0.53067 1.83067,1.09467 2.744,1.64534 0.90134,0.544 1.80267,1.08933 2.69867,1.65333 0.70267,0.44267 1.40133,0.9 2.10133,1.35467 0.92934,0.604 1.85867,1.212 2.78267,1.83866 0.692,0.46934 1.38133,0.948 2.07067,1.42934 0.948,0.66133 1.89466,1.332 2.836,2.016 0.67333,0.488 1.34533,0.98266 2.01466,1.48133 1.00267,0.74933 2,1.512 2.99467,2.284 0.63067,0.48933 1.264,0.97867 1.89067,1.47867 1.14666,0.912 2.284,1.84666 3.41866,2.78933 0.496,0.41467 0.99734,0.81867 1.492,1.23733 1.632,1.38134 3.252,2.792 4.856,4.236 0.22534,0.20267 0.44667,0.41467 0.67067,0.62 1.38533,1.256 2.76,2.532 4.12267,3.83334 0.53866,0.51333 1.07066,1.03866 1.60533,1.56 1.036,1.008 2.068,2.02266 3.08933,3.05466 0.59067,0.59467 1.17734,1.196 1.76134,1.79867 0.932,0.96133 1.85866,1.93333 2.77866,2.91333 0.58267,0.62 1.16534,1.24134 1.74267,1.868 0.92,1.00134 1.83067,2.016 2.73867,3.036 0.53733,0.60267 1.07733,1.20134 1.60933,1.81067 1.00667,1.15067 1.99866,2.32 2.988,3.49467 0.40933,0.48533 0.82533,0.964 1.232,1.45333 1.42933,1.72133 2.84266,3.46667 4.236,5.23333 0.24133,0.30534 0.476,0.62 0.71733,0.92667 1.31067,1.676 2.60267,3.372 3.87733,5.08533 0.552,0.73867 1.10134,1.48267 1.64667,2.22934 0.55333,0.75866 1.104,1.51866 1.652,2.284 0.62,0.87066 1.236,1.74666 1.848,2.62399 0.53467,0.768 1.06933,1.536 1.59867,2.30934 0.44266,0.65066 0.87733,1.30533 1.316,1.95866 1.34666,2.008 2.672,4.03467 3.96933,6.08 0.204,0.32134 0.41333,0.636 0.616,0.95867 1.44667,2.30133 2.85467,4.628 4.23867,6.972 0.476,0.808 0.94933,1.62133 1.41866,2.43467 0.47734,0.828 0.95467,1.65466 1.424,2.488 0.52667,0.93466 1.044,1.87466 1.56,2.81466 0.45734,0.83334 0.916,1.66667 1.36534,2.504 0.40533,0.75467 0.8,1.51334 1.19733,2.272 0.72267,1.37734 1.436,2.75734 2.13467,4.14534 0.39466,0.78 0.78666,1.56266 1.17333,2.34666 0.55067,1.11867 1.09067,2.24 1.62667,3.364 0.40133,0.84267 0.804,1.684 1.19733,2.53067 0.46133,0.996 0.91333,1.99467 1.36267,2.99467 0.40666,0.90133 0.81333,1.80133 1.208,2.70533 0.408,0.92933 0.80266,1.86267 1.19866,2.79467 0.39734,0.936 0.79467,1.87066 1.18,2.80933 0.39467,0.95867 0.776,1.92 1.15867,2.88 0.36933,0.92933 0.74,1.85733 1.09867,2.78667 0.38,0.988 0.74666,1.97733 1.11333,2.96533 0.34,0.91467 0.68133,1.82667 1.00933,2.74133 0.39067,1.08934 0.76534,2.18 1.14,3.272 0.296,0.86 0.59734,1.72134 0.884,2.58267 0.38934,1.176 0.76,2.35467 1.132,3.532 0.25067,0.79333 0.50934,1.588 0.752,2.38267 0.42934,1.41066 0.83334,2.82133 1.236,4.23333 0.18534,0.648 0.384,1.29733 0.56267,1.94667 0.98133,0.26133 1.96933,0.548 2.96267,0.848 1.21466,0.37066 2.43866,0.772 3.67066,1.20266 0.33467,0.11734 0.67334,0.24667 1.01067,0.368 0.888,0.32134 1.77733,0.65467 2.67333,1.00667 0.43467,0.172 0.872,0.35067 1.308,0.528 0.81067,0.332 1.62534,0.67867 2.44134,1.03733 0.43866,0.19067 0.876,0.38134 1.316,0.58134 0.88533,0.40133 1.77466,0.824 2.66666,1.25733 0.352,0.17067 0.70134,0.332 1.05467,0.50667 1.23867,0.616 2.484,1.25866 3.73467,1.93466 1.08133,0.584 2.16666,1.188 3.256,1.81734 0.77466,0.448 1.544,0.92266 2.31466,1.388 0.75867,0.45866 1.51734,0.916 2.272,1.392 0.59334,0.372 1.184,0.75866 1.77334,1.14266 0.78266,0.50934 1.564,1.02134 2.34133,1.548 0.58533,0.39467 1.16667,0.8 1.74667,1.20667 0.8,0.55733 1.59733,1.12267 2.39066,1.69733 0.568,0.41334 1.13467,0.82934 1.69867,1.25067 0.844,0.62933 1.68133,1.27067 2.51867,1.92 0.53466,0.416 1.06933,0.828 1.60133,1.252 0.95733,0.76267 1.90933,1.54533 2.85733,2.33333 0.42667,0.35334 0.856,0.7 1.28,1.06134 1.37467,1.164 2.73867,2.35066 4.09067,3.56666 0.17067,0.15467 0.33733,0.31467 0.50667,0.46934 1.18533,1.07466 2.36266,2.168 3.52933,3.28133 0.45333,0.432 0.90133,0.876 1.35067,1.31333 0.87333,0.84934 1.744,1.70534 2.60533,2.576 0.49867,0.50267 0.99333,1.012 1.488,1.52 0.78267,0.808 1.56133,1.62267 2.33333,2.44667 0.49334,0.52533 0.98667,1.04933 1.47467,1.58267 0.77467,0.84266 1.54133,1.69466 2.30533,2.55466 0.456,0.512 0.91334,1.02 1.36534,1.536 0.84533,0.96934 1.68,1.952 2.51066,2.93867 0.35067,0.41466 0.70534,0.824 1.05334,1.24133 1.2,1.44533 2.38533,2.90933 3.55466,4.392 0.18533,0.236 0.36667,0.47733 0.552,0.71467 1.11467,1.424 2.21333,2.86666 3.29867,4.32266 0.47466,0.63867 0.948,1.27867 1.41733,1.92267 0.45867,0.628 0.91733,1.26 1.37067,1.89467 0.528,0.73733 1.04933,1.48266 1.568,2.228 0.44666,0.64 0.89333,1.28 1.33333,1.92533 0.36,0.52667 0.71333,1.06 1.068,1.588 1.09867,1.64 2.18,3.292 3.24133,4.96 0.21067,0.33067 0.42667,0.65733 0.63467,0.98933 1.212,1.92534 2.39067,3.87067 3.548,5.828 0.412,0.69734 0.81733,1.39734 1.22133,2.09734 0.412,0.712 0.82267,1.42266 1.22534,2.13866 0.44133,0.78 0.872,1.564 1.30266,2.348 0.39467,0.72 0.792,1.43867 1.17867,2.16134 0.328,0.612 0.64667,1.228 0.96933,1.84266 0.624,1.18534 1.23734,2.37467 1.84,3.56934 0.332,0.65866 0.66134,1.31733 0.98667,1.97866 0.468,0.948 0.92667,1.89867 1.38,2.85067 0.34,0.712 0.67733,1.42267 1.00933,2.136 0.39067,0.84267 0.77334,1.688 1.15334,2.532 0.34266,0.76133 0.684,1.52133 1.01733,2.28267 0.34,0.77866 0.672,1.56 1.00267,2.34133 0.33733,0.79333 0.67333,1.58533 0.99866,2.38 0.332,0.80533 0.65334,1.612 0.97467,2.42 0.31067,0.78267 0.62267,1.56533 0.924,2.35067 0.32133,0.83333 0.632,1.668 0.94133,2.50266 0.28667,0.772 0.57467,1.544 0.85067,2.316 0.32667,0.91067 0.64,1.82534 0.956,2.73867 0.24933,0.72933 0.50533,1.46133 0.74667,2.192 0.32533,0.98133 0.636,1.964 0.94533,2.94533 0.21467,0.68134 0.43467,1.36267 0.644,2.04267 0.34267,1.13333 0.668,2.26533 0.992,3.39867 0.17867,0.624 0.368,1.24933 0.54,1.872 l 28.15203,16.25466 c 1.0613,0.61334 2.1173,1.256 3.1666,1.92 l 0.2067,0.12667 c 1.0253,0.652 2.0453,1.33333 3.0587,2.03333 0.348,0.24 0.6933,0.49334 1.04,0.74 0.6773,0.47867 1.3533,0.96534 2.024,1.46534 0.412,0.30666 0.8213,0.62266 1.2306,0.93733 0.6067,0.46533 1.2107,0.93733 1.8134,1.41867 0.4413,0.35466 0.88,0.71466 1.3186,1.07866 0.5734,0.47334 1.1427,0.95467 1.7107,1.44267 0.4493,0.38667 0.8987,0.77733 1.344,1.172 0.556,0.49333 1.1093,0.99467 1.6587,1.50133 0.4453,0.408 0.8893,0.81867 1.3306,1.236 0.5587,0.52934 1.112,1.06667 1.664,1.61067 0.4094,0.4 0.8187,0.80133 1.2254,1.21067 0.572,0.57598 1.136,1.16398 1.7,1.75338 0.3733,0.3906 0.7493,0.7773 1.1186,1.1733 0.6534,0.6973 1.296,1.412 1.936,2.1267 0.26,0.2906 0.524,0.5733 0.7827,0.8666 0.9013,1.024 1.792,2.0627 2.6693,3.1187 0.14,0.1667 0.2734,0.34 0.412,0.508 0.74,0.8987 1.4747,1.8053 2.1974,2.7267 0.928,1.1826 1.8413,2.3786 2.7373,3.5933 l 0.036,0.048 c 1.2707,1.7213 2.4973,3.4867 3.7,5.268 0.2827,0.42 0.5693,0.8373 0.848,1.26 0.4347,0.6573 0.86,1.32 1.284,1.984 0.38,0.592 0.76,1.184 1.1307,1.7813 0.4173,0.672 0.824,1.3507 1.232,2.028 0.3346,0.5574 0.6706,1.1134 0.9986,1.6747 0.968,1.6573 1.908,3.328 2.8134,5.0173 0.3306,0.616 0.6506,1.2374 0.9733,1.8587 0.34,0.652 0.6827,1.3027 1.0133,1.9587 0.4614,0.924 0.912,1.8506 1.356,2.78 0.144,0.3013 0.2934,0.5986 0.4347,0.9 0.5653,1.2 1.1107,2.408 1.6427,3.6186 0.14,0.32 0.2746,0.6414 0.412,0.9627 0.388,0.8987 0.7693,1.8013 1.1373,2.7067 0.1693,0.412 0.3347,0.8266 0.4987,1.24 0.3466,0.8706 0.6826,1.744 1.0106,2.6173 0.14,0.3747 0.284,0.7467 0.4214,1.12 0.4213,1.1507 0.8266,2.3027 1.216,3.456 l 0.1026,0.292 c 0.4187,1.2493 0.8147,2.5027 1.1947,3.7533 0.124,0.4067 0.2373,0.8134 0.356,1.2187 0.252,0.8613 0.5,1.72 0.732,2.5813 0.1307,0.4787 0.2547,0.9587 0.3787,1.4374 0.2093,0.8053 0.4093,1.6093 0.6013,2.4133 0.1133,0.476 0.2253,0.9507 0.3333,1.4267 0.1867,0.8293 0.3614,1.656 0.5307,2.484 0.089,0.436 0.1827,0.8733 0.2653,1.3106 0.2094,1.084 0.4014,2.1667 0.576,3.2467 0.027,0.1533 0.056,0.3093 0.081,0.464 0.1947,1.2347 -0.1409,0.7428 0.01,1.9695 0.043,0.348 0.077,0.6946 0.116,1.0426 0.1,0.8787 0.1907,1.756 0.2667,2.6307 0.037,0.4213 0.5755,2.5612 0.6076,2.9812 0.06,0.8293 0.1106,1.656 0.1506,2.48 0.019,0.3987 0.041,0.7973 0.056,1.192 0.041,1.1707 0.069,2.3373 0.067,3.496 l -0.016,5.1147 c 0,1.2173 -0.035,2.4066 -0.088,3.58 -0.016,0.332 -0.043,0.6533 -0.061,0.9826 -0.048,0.8067 -0.1013,1.604 -0.1706,2.3894 -0.041,0.4546 -0.092,0.9 -0.14,1.348 -0.072,0.6626 -0.148,1.3213 -0.2374,1.9706 -0.064,0.4787 -0.1373,0.9507 -0.212,1.4214 -0.095,0.596 -0.196,1.1866 -0.3053,1.768 -0.097,0.5266 -0.204,1.0453 -0.3133,1.5599 -0.1134,0.5254 -0.2307,1.0427 -0.356,1.556 -0.1467,0.604 -0.3027,1.1987 -0.4654,1.7854 -0.128,0.46 -0.256,0.9146 -0.3946,1.3626 -0.2147,0.704 -0.4467,1.3894 -0.6854,2.068 -0.1293,0.3667 -0.2546,0.7387 -0.3893,1.0974 -0.4347,1.14 -0.8947,2.2466 -1.3947,3.308 -0.3893,0.824 -0.7946,1.6306 -1.224,2.4066 v 0 c -0.436,0.788 -0.8946,1.5507 -1.3706,2.288 -0.096,0.1507 -0.1987,0.292 -0.296,0.4387 -0.3627,0.5466 -0.7347,1.0786 -1.1174,1.596 -0.1546,0.2093 -0.312,0.4133 -0.472,0.6186 -0.364,0.4694 -0.7373,0.9254 -1.1186,1.3694 -0.148,0.1706 -0.2907,0.3453 -0.44,0.512 -0.5254,0.588 -1.064,1.1573 -1.6227,1.6986 l -0.2453,0.2254 c -0.4854,0.4626 -0.984,0.908 -1.4934,1.3346 -0.1853,0.1547 -0.3733,0.3054 -0.5626,0.456 -0.436,0.3507 -0.8814,0.6867 -1.3347,1.0134 -0.188,0.1333 -0.372,0.2706 -0.5613,0.4 -0.632,0.4333 -1.2734,0.848 -1.9334,1.232 l 122.7081,-73.3735 112.2222,-81.14928 c 0.6614,-0.384 1.3027,-0.8 1.9334,-1.232 0.1906,-0.13067 0.376,-0.26667 0.5613,-0.40134 0.4533,-0.32533 0.8987,-0.66266 1.336,-1.01333 0.1893,-0.15067 0.3773,-0.3 0.5627,-0.45467 0.5093,-0.42933 1.008,-0.87333 1.4933,-1.33466 l 0.2453,-0.22534 c 0.5587,-0.54266 1.0974,-1.11066 1.624,-1.7 0.148,-0.16666 0.2907,-0.34133 0.4374,-0.51066 0.3826,-0.44534 0.756,-0.90134 1.1213,-1.372 0.1587,-0.20267 0.3147,-0.408 0.4693,-0.616 0.384,-0.516 0.7574,-1.05067 1.1187,-1.596 0.097,-0.148 0.2,-0.28934 0.2973,-0.43867 l 0.087,-0.13067 c 0.4413,-0.69066 0.8653,-1.40666 1.2707,-2.14133 l 0.019,-0.0307 c 0.408,-0.73866 0.7987,-1.50133 1.1694,-2.284 l 0.047,-0.112 c 0.5014,-1.06 0.9627,-2.168 1.3947,-3.30666 l 0.1213,-0.28667 c 0.097,-0.26133 0.176,-0.544 0.2694,-0.81067 0.24,-0.67866 0.4706,-1.364 0.6866,-2.068 0.056,-0.188 0.1267,-0.36266 0.1814,-0.55066 0.079,-0.264 0.1386,-0.54667 0.212,-0.81467 0.1626,-0.58533 0.32,-1.17867 0.4653,-1.78133 0.06,-0.248 0.1333,-0.48134 0.1907,-0.73067 0.061,-0.26933 0.108,-0.55467 0.1666,-0.828 0.1094,-0.51333 0.2134,-1.03333 0.312,-1.55733 0.051,-0.27067 0.1134,-0.52934 0.16,-0.80267 0.056,-0.316 0.095,-0.648 0.1454,-0.968 0.075,-0.47067 0.1466,-0.94267 0.2133,-1.42133 0.032,-0.244 0.076,-0.47734 0.108,-0.72267 0.051,-0.40933 0.083,-0.83333 0.128,-1.24667 0.049,-0.448 0.1,-0.89333 0.14,-1.34933 0.016,-0.18267 0.04,-0.35733 0.056,-0.54 0.049,-0.60667 0.077,-1.22933 0.1147,-1.848 0.017,-0.32933 0.045,-0.65067 0.06,-0.98267 l 0.015,-0.24266 c 0.044,-1.03467 0.068,-2.084 0.075,-3.14934 v -0.188 l 0.015,-5.116 c 0,-0.97333 -0.011,-1.95466 -0.04,-2.93733" id="path6" sodipodi:nodetypes="cccccccccccccccccccccccccccccsccccscccccccscccccccccsccccccccccccccccsccsccscsccccccccccsccccccccccscccccccccccssccscsccccccsscccccsccccccccccccccccccsccccccccccccccccccccccccccccccccccccccccccccccccscscccccccccccccccscccccccsccccccccccscccccccccccccccccccccccccccccccsccscccccccccccccccccccccccccscccccccccccccccccccccccccccccccccccccccccccccccccscsccccccccccccccccccscccccccccccscsccccccscccscccsccsscccccccccccccccccccsccccscccccccccccccsccscccccccccccccccccccccccccccccccccccccccccccccccccccccccccscccccccccscccccccccccccccccsccscccccccccccccccsccccccccccsccccscccsccccccccccccsccccccccsscssccccccccccccsccccccccccccccccccccccsccsccccsscccccccc" style="fill:#5d658c;fill-opacity:1;fill-rule:nonzero;stroke:none;stroke-width:0.133333"></path>
    <path d="m 734.96399,680.09602 c 50.396,29.096 93.30799,90.22267 110.08666,151.07467 8.32533,2.22 17.07067,5.87866 26.09467,11.088 42.496,24.53466 78.67466,76.09999 92.79466,127.42133 l 28.152,16.25466 c 35.97602,20.76932 65.04662,71.12132 64.92932,112.46002 l -0.016,5.1146 c -0.1173,41.3387 -29.376,58.024 -65.35332,37.2534 L 600.10399,914.70135 c -35.976,-20.77067 -65.04667,-71.132 -64.92933,-112.47066 l 0.0147,-5.11467 c 0.005,-2.11333 0.10534,-4.15333 0.264,-6.13867 -0.14666,-2.36666 -0.23333,-4.72 -0.22666,-7.048 0.14533,-51.45333 36.56266,-72.19733 81.332,-46.34933 4.97466,-67.48666 56.13333,-93.436 118.40533,-57.484" id="path7" style="fill:#fbefed;fill-opacity:1;fill-rule:nonzero;stroke:none;stroke-width:0.133333"></path>
    <path d="m 1171.492,659.21736 c 0.041,-14.56667 -10.208,-32.31067 -22.884,-39.628 L 913.59332,483.90269 c -12.676,-7.31866 -22.984,-1.444 -23.02534,13.12134 l -1.01466,357.84932 0.23333,0.18267 c 0.95867,0.76267 1.90933,1.54533 2.85733,2.33333 0.42667,0.35334 0.856,0.7 1.28,1.06134 1.37467,1.164 2.74,2.35066 4.09067,3.56666 0.17067,0.15467 0.33733,0.31467 0.50667,0.46934 1.18533,1.07466 2.36266,2.168 3.52933,3.28133 0.45333,0.432 0.90133,0.876 1.352,1.31333 0.87333,0.84934 1.74267,1.70534 2.604,2.576 0.49867,0.50267 0.99333,1.012 1.48933,1.52 0.78134,0.808 1.56,1.62267 2.33334,2.44667 0.492,0.52533 0.98533,1.04933 1.47333,1.58267 0.77467,0.84266 1.54133,1.69466 2.30533,2.55466 0.456,0.512 0.91467,1.02 1.36534,1.536 0.84533,0.96934 1.68,1.952 2.512,2.93867 0.34933,0.41466 0.70533,0.824 1.052,1.24133 1.2,1.44533 2.38533,2.90933 3.55466,4.392 0.18533,0.236 0.36667,0.47733 0.552,0.71467 1.11467,1.424 2.21467,2.86666 3.29867,4.32266 0.47466,0.63867 0.948,1.27867 1.41733,1.92267 0.46,0.628 0.91733,1.26 1.37067,1.89467 0.528,0.73733 1.04933,1.48266 1.56933,2.228 0.44667,0.64 0.892,1.28 1.33333,1.92533 0.35867,0.52667 0.712,1.06 1.06667,1.588 1.1,1.64 2.18133,3.292 3.24267,4.96 0.20933,0.33067 0.42533,0.65733 0.63466,0.98933 1.21067,1.92534 2.39067,3.87067 3.548,5.828 0.41067,0.69734 0.816,1.39734 1.22134,2.09734 0.41066,0.712 0.82133,1.42266 1.22533,2.13866 0.44,0.78 0.87067,1.564 1.30133,2.348 0.39467,0.72 0.792,1.43867 1.17867,2.16134 0.328,0.612 0.64667,1.228 0.97067,1.84266 0.62266,1.18534 1.236,2.37467 1.83866,3.56934 0.33334,0.65866 0.66267,1.31733 0.988,1.97866 0.46667,0.948 0.92534,1.89867 1.37867,2.85067 0.34,0.712 0.67867,1.42267 1.01067,2.136 0.39066,0.84267 0.772,1.688 1.152,2.532 0.34266,0.76133 0.68533,1.52133 1.01866,2.28267 0.34,0.77866 0.672,1.56 1.00267,2.34133 0.33733,0.79333 0.672,1.58533 0.99867,2.38 0.332,0.80533 0.652,1.612 0.97333,2.42 0.31067,0.78267 0.62267,1.56533 0.924,2.35067 0.32267,0.83333 0.632,1.668 0.94267,2.50266 0.28533,0.772 0.57333,1.544 0.84933,2.316 0.32667,0.91067 0.64133,1.82534 0.956,2.73867 0.24933,0.72933 0.50533,1.46133 0.748,2.192 0.32533,0.98133 0.63467,1.964 0.94533,2.94533 0.21467,0.68134 0.43467,1.36267 0.64267,2.04267 0.344,1.13333 0.668,2.26533 0.992,3.39867 0.17867,0.624 0.368,1.24933 0.54,1.872 l 28.15333,16.25466 c 1.06134,0.61334 2.11734,1.256 3.16667,1.92 l 0.20533,0.12667 c 1.02534,0.652 2.04534,1.33333 3.05867,2.03333 0.34933,0.24 0.69333,0.49334 1.04,0.74 0.67732,0.47867 1.35472,0.96534 2.02532,1.46534 0.4107,0.30666 0.82,0.62266 1.2307,0.93733 0.6067,0.46533 1.2107,0.93733 1.812,1.41867 0.4413,0.35466 0.88,0.71466 1.3187,1.07866 0.5733,0.47334 1.144,0.95467 1.7106,1.44267 0.4494,0.38667 0.8987,0.77733 1.344,1.172 0.556,0.49333 1.1094,0.99467 1.6587,1.50133 0.4453,0.40802 0.8893,0.81872 1.3307,1.23602 0.5586,0.5293 1.112,1.0667 1.664,1.6107 0.4093,0.4 0.82,0.8013 1.2253,1.2106 0.572,0.576 1.136,1.164 1.7013,1.7534 0.372,0.3906 0.748,0.7773 1.1187,1.1733 0.652,0.6973 1.2947,1.412 1.936,2.1267 0.2587,0.2906 0.5227,0.5733 0.7827,0.8666 0.9,1.024 1.7906,2.0627 2.6693,3.1187 0.1387,0.1667 0.2733,0.34 0.4107,0.508 0.74,0.8987 1.476,1.8053 2.1986,2.7267 0.9267,1.1826 1.8414,2.3786 2.736,3.5933 l 0.037,0.048 c 1.2693,1.7213 2.496,3.4867 3.6987,5.268 0.2826,0.42 0.5693,0.8373 0.848,1.26 0.4346,0.6573 0.86,1.32 1.2853,1.984 0.3787,0.592 0.7587,1.184 1.1293,1.7813 0.4174,0.672 0.8254,1.3507 1.232,2.028 0.3347,0.5574 0.6707,1.1134 0.9987,1.6747 0.968,1.6573 1.908,3.328 2.8147,5.0173 0.3306,0.616 0.6493,1.2374 0.972,1.8587 0.34,0.652 0.6826,1.3027 1.0133,1.9587 0.4627,0.924 0.912,1.8506 1.356,2.78 0.144,0.3013 0.2933,0.5986 0.436,0.9 0.564,1.2 1.1107,2.408 1.6413,3.6186 0.1414,0.32 0.2747,0.6414 0.4134,0.9627 0.388,0.8987 0.768,1.8013 1.136,2.7067 0.1693,0.412 0.3346,0.8266 0.4986,1.24 0.3467,0.8706 0.6827,1.744 1.0107,2.6173 0.1413,0.3747 0.284,0.7467 0.4213,1.12 0.4214,1.1507 0.828,2.3027 1.2174,3.456 l 0.1026,0.292 c 0.4174,1.2493 0.8134,2.5027 1.1934,3.7533 0.124,0.4067 0.2373,0.8134 0.356,1.2187 0.252,0.8613 0.5,1.72 0.7333,2.5813 0.1293,0.4787 0.2533,0.9587 0.3773,1.4374 0.2094,0.8053 0.4094,1.6093 0.6014,2.4133 0.1133,0.476 0.2253,0.9507 0.3333,1.4267 0.188,0.8293 0.3613,1.656 0.5307,2.484 0.089,0.436 0.1826,0.8733 0.2666,1.3106 0.1707,0.888 0.3227,1.7747 0.4707,2.66 l 41.8637,29.2125 11.4797,-6.0024 61.6779,-36.5127 0.924,-409.03204" id="path8" sodipodi:nodetypes="cccccccccccccccccccccccccsccccccscccccccsccccccccccccccccccccccscccccccccsccccccccscsccsccscccccccscccsssccccc" style="fill:#fbefed;fill-opacity:1;fill-rule:nonzero;stroke:none;stroke-width:0.133333"></path>
    <path d="M 1125.9466,677.82402 935.12931,569.57336 c -2.61333,-1.508 -4.74,-0.296 -4.748,2.708 -0.009,3.00267 2.104,6.66133 4.71734,8.17067 l 190.81865,108.24933 c 2.612,1.50933 4.7387,0.29733 4.748,-2.70534 0.01,-3.00266 -2.1053,-6.66266 -4.7187,-8.172" id="path9" style="fill:#e9a094;fill-opacity:1;fill-rule:nonzero;stroke:none;stroke-width:0.133333"></path>
    <path d="M 1125.9466,744.53069 935.12931,636.28136 c -2.61333,-1.50934 -4.74,-0.29734 -4.748,2.70533 -0.009,3.004 2.104,6.66267 4.71734,8.172 l 190.81865,108.24933 c 2.612,1.50933 4.7387,0.29733 4.748,-2.70533 0.01,-3.004 -2.1053,-6.66267 -4.7187,-8.172" id="path10" style="fill:#e9a094;fill-opacity:1;fill-rule:nonzero;stroke:none;stroke-width:0.133333"></path>
    <path d="M 1125.9466,811.23735 935.12931,702.98802 c -2.61333,-1.50933 -4.74,-0.29733 -4.748,2.70534 -0.009,3.00266 2.104,6.66266 4.71734,8.172 l 190.81865,108.25066 c 2.612,1.50667 4.7387,0.296 4.748,-2.708 0.01,-3.00267 -2.1053,-6.66267 -4.7187,-8.17067" id="path11" style="fill:#e9a094;fill-opacity:1;fill-rule:nonzero;stroke:none;stroke-width:0.133333"></path>
    <path d="M 1125.9466,877.94402 935.12931,769.69335 c -2.61333,-1.508 -4.74,-0.29733 -4.748,2.70667 -0.009,3.00267 2.104,6.66267 4.71734,8.17067 l 190.81865,108.25066 c 2.612,1.50933 4.7387,0.29733 4.748,-2.70533 0.01,-3.00267 -2.1053,-6.664 -4.7187,-8.172" id="path12" style="fill:#e9a094;fill-opacity:1;fill-rule:nonzero;stroke:none;stroke-width:0.133333"></path>
    <path d="M 1125.9466,944.65068 935.12931,836.40002 c -2.61333,-1.508 -4.74,-0.296 -4.748,2.708 -0.009,3.00267 2.104,6.66133 4.71734,8.17067 l 190.81865,108.24933 c 2.612,1.50933 4.7387,0.29733 4.748,-2.70534 0.01,-3.004 -2.1053,-6.66266 -4.7187,-8.172" id="path13" style="fill:#e9a094;fill-opacity:1;fill-rule:nonzero;stroke:none;stroke-width:0.133333"></path>
    <path d="m 1110.068,680.60669 c 0.041,-14.56533 -10.208,-32.31067 -22.884,-39.628 L 852.16798,505.29203 c -12.676,-7.31734 -22.984,-1.444 -23.02533,13.12133 l -0.61067,269.83466 c 0.34667,0.712 0.69334,1.42533 1.03467,2.13867 0.40133,0.84266 0.804,1.684 1.196,2.52933 0.46267,0.996 0.91333,1.996 1.364,2.996 0.40533,0.90133 0.81333,1.80133 1.208,2.70667 0.40667,0.92933 0.80267,1.86133 1.19733,2.79333 0.39734,0.936 0.796,1.872 1.18134,2.80933 0.39466,0.95734 0.776,1.91867 1.15866,2.88 0.36934,0.928 0.74,1.856 1.09867,2.788 0.38,0.98667 0.74667,1.97467 1.11333,2.964 0.33867,0.91334 0.68,1.82534 1.00934,2.74134 0.39066,1.08933 0.76533,2.18 1.14,3.27066 0.296,0.86267 0.59733,1.72267 0.88266,2.58534 0.39067,1.17466 0.76134,2.35333 1.13334,3.53066 0.25066,0.79467 0.50933,1.588 0.752,2.38267 0.42933,1.41067 0.83333,2.82133 1.236,4.232 0.184,0.64933 0.384,1.3 0.56266,1.948 0.98134,0.26133 1.96934,0.54667 2.96267,0.84933 1.21467,0.36934 2.43867,0.77067 3.67067,1.20134 0.33466,0.11733 0.67333,0.24666 1.01066,0.368 0.88667,0.32266 1.77734,0.65466 2.67334,1.00666 0.43466,0.172 0.872,0.35067 1.308,0.52934 0.81066,0.332 1.62533,0.67733 2.44133,1.03466 0.43867,0.19334 0.876,0.38267 1.31467,0.58267 0.88533,0.40133 1.776,0.824 2.668,1.25733 0.35066,0.17067 0.70133,0.332 1.05333,0.50667 1.24,0.616 2.484,1.25867 3.736,1.93467 1.08133,0.58266 2.16667,1.188 3.256,1.81733 0.77467,0.44667 1.544,0.924 2.31467,1.388 0.75866,0.45867 1.51733,0.916 2.272,1.39067 0.59333,0.37466 1.18266,0.76133 1.77333,1.14533 0.78267,0.508 1.564,1.02 2.34133,1.54667 0.584,0.396 1.16534,0.8 1.74667,1.20533 0.8,0.55867 1.59733,1.124 2.39067,1.69867 0.568,0.41333 1.13333,0.83066 1.69866,1.25066 0.84267,0.62934 1.68134,1.27067 2.51734,1.91867 0.53466,0.416 1.07066,0.83067 1.60266,1.25333 0.95734,0.76267 1.90934,1.544 2.85734,2.33334 0.42533,0.35466 0.856,0.7 1.28,1.06 1.37466,1.16533 2.73866,2.352 4.09066,3.56933 0.16934,0.15333 0.336,0.31333 0.50667,0.46667 1.18533,1.076 2.36267,2.16933 3.52933,3.28266 0.45334,0.432 0.90134,0.87467 1.35067,1.31334 0.87333,0.84933 1.74267,1.70666 2.60533,2.576 0.49734,0.50266 0.99334,1.01066 1.488,1.52133 0.78267,0.80667 1.56,1.62133 2.33334,2.44533 0.49333,0.52534 0.98533,1.05067 1.47466,1.58134 0.77467,0.84266 1.54134,1.69733 2.30534,2.55466 0.456,0.512 0.91333,1.02 1.36533,1.53867 0.84533,0.96666 1.67867,1.94933 2.512,2.93733 0.34933,0.41467 0.704,0.824 1.052,1.24133 1.19867,1.44534 2.38533,2.90934 3.55466,4.39067 0.18534,0.23733 0.36667,0.48 0.552,0.716 1.11467,1.42533 2.21334,2.86667 3.29734,4.32267 0.476,0.63733 0.94933,1.27866 1.41866,1.92266 0.45867,0.62934 0.91734,1.25867 1.37067,1.89467 0.52667,0.73867 1.048,1.48133 1.568,2.228 0.44667,0.64 0.89333,1.28133 1.33333,1.92533 0.35867,0.528 0.712,1.05867 1.068,1.58934 1.09867,1.63733 2.18,3.29066 3.24134,4.95733 0.21066,0.332 0.42666,0.65867 0.63466,0.99067 1.21067,1.92533 2.392,3.86933 3.548,5.82933 0.412,0.696 0.81734,1.39467 1.22134,2.096 0.412,0.712 0.82266,1.42267 1.22533,2.13867 0.44,0.77866 0.87067,1.564 1.30267,2.348 0.39333,0.72 0.79066,1.43733 1.17733,2.16133 0.328,0.612 0.64933,1.228 0.97067,1.84267 0.624,1.18533 1.23866,2.37466 1.84,3.57066 0.332,0.65734 0.66266,1.316 0.988,1.976 0.46666,0.948 0.924,1.9 1.37866,2.852 0.33867,0.71067 0.67734,1.42267 1.00934,2.136 0.39066,0.84267 0.772,1.688 1.152,2.53334 0.34266,0.76 0.68533,1.51866 1.01866,2.28266 0.34134,0.77867 0.672,1.56 1.004,2.34134 0.336,0.79066 0.672,1.584 0.99867,2.37866 0.33067,0.80534 0.652,1.612 0.972,2.41867 0.312,0.784 0.624,1.56667 0.92667,2.35067 0.32,0.83466 0.62933,1.66933 0.94,2.50533 0.28666,0.77067 0.57333,1.54133 0.84933,2.31333 0.32933,0.91334 0.64267,1.82534 0.956,2.74 0.252,0.73067 0.50533,1.46 0.74933,2.192 0.324,0.98267 0.63334,1.964 0.944,2.94534 0.21467,0.68133 0.436,1.36133 0.64267,2.044 0.34533,1.13066 0.66933,2.264 0.992,3.39733 0.17867,0.624 0.36933,1.248 0.54133,1.87333 l 28.152,16.25334 c 1.06267,0.61333 2.11734,1.256 3.16667,1.92133 l 0.20533,0.124 c 1.028,0.65333 2.04534,1.33467 3.05867,2.03467 0.34933,0.24 0.69467,0.49333 1.04002,0.73866 0.6786,0.48134 1.3546,0.96534 2.0253,1.46667 0.4133,0.30667 0.8213,0.624 1.2307,0.93733 0.6066,0.46667 1.2106,0.93734 1.812,1.42 0.4413,0.35334 0.8813,0.71467 1.32,1.07734 0.5733,0.47466 1.144,0.95466 1.7106,1.44133 0.4507,0.38667 0.8974,0.77735 1.3427,1.17335 0.5573,0.4933 1.1093,0.9946 1.6613,1.5 0.444,0.4106 0.888,0.82 1.3294,1.2373 0.5586,0.5293 1.112,1.068 1.664,1.6093 0.408,0.4027 0.8186,0.8027 1.2253,1.212 0.5707,0.576 1.136,1.164 1.7,1.7534 0.3733,0.3906 0.7493,0.7773 1.1187,1.1733 0.652,0.6987 1.296,1.4107 1.936,2.1267 0.26,0.2906 0.5253,0.5746 0.7827,0.8666 0.9013,1.024 1.7933,2.0627 2.6706,3.1187 0.1374,0.1667 0.272,0.34 0.4094,0.5067 0.7413,0.9 1.476,1.8066 2.1986,2.728 0.928,1.1813 1.8414,2.3786 2.7387,3.5933 l 0.035,0.048 c 1.2693,1.7227 2.496,3.4867 3.6986,5.2693 0.2827,0.4187 0.5694,0.8374 0.8494,1.2587 0.4333,0.6573 0.86,1.32 1.284,1.984 0.3786,0.5933 0.7586,1.184 1.1306,1.7813 0.416,0.672 0.824,1.3507 1.232,2.028 0.3334,0.5574 0.6694,1.1147 0.9987,1.676 0.9667,1.656 1.9067,3.328 2.8133,5.0147 0.332,0.6173 0.6494,1.2387 0.972,1.8587 0.34,0.6533 0.6827,1.304 1.0134,1.9613 0.464,0.9227 0.9133,1.8493 1.3573,2.78 0.1427,0.3 0.2933,0.5973 0.4347,0.8987 0.5653,1.2013 1.1106,2.408 1.6426,3.6186 0.1414,0.3187 0.2734,0.6414 0.412,0.9627 0.388,0.9 0.768,1.8013 1.136,2.7067 0.1694,0.4133 0.3347,0.8253 0.4987,1.24 0.3467,0.8706 0.684,1.7426 1.012,2.6186 0.14,0.3734 0.284,0.7454 0.4213,1.12 0.42,1.1494 0.828,2.3014 1.2174,3.4534 l 0.1013,0.2933 c 0.4187,1.2507 0.8147,2.5027 1.1947,3.7547 0.1226,0.4053 0.236,0.812 0.356,1.2186 0.252,0.8587 0.4986,1.72 0.7333,2.58 0.1293,0.48 0.252,0.9587 0.3773,1.4374 0.208,0.8053 0.4094,1.608 0.6014,2.4133 0.1133,0.4747 0.2253,0.952 0.332,1.4267 0.188,0.828 0.3626,1.656 0.532,2.4826 0.088,0.4387 0.1813,0.8747 0.2653,1.3107 0.208,1.084 0.4013,2.168 0.5773,3.2467 0.024,0.156 0.055,0.3106 0.079,0.4653 0.1974,1.2347 0.3654,2.4653 0.5174,3.692 0.043,0.3467 0.076,0.6933 0.116,1.04 0.1,0.88 0.1893,1.7573 0.2666,2.632 0.036,0.4213 0.069,0.84 0.1,1.2587 0.061,0.8306 0.1107,1.6573 0.1507,2.4813 0.02,0.3973 0.043,0.796 0.056,1.1933 0.043,1.1707 0.069,2.3374 0.067,3.4947 l -0.015,5.116 c 0,1.216 -0.036,2.4053 -0.089,3.5787 -0.016,0.332 -0.041,0.6546 -0.061,0.984 -0.047,0.804 -0.1,1.604 -0.1707,2.3893 -0.04,0.4533 -0.091,0.8987 -0.1386,1.3453 -0.072,0.664 -0.1494,1.324 -0.2374,1.972 -0.065,0.4787 -0.1386,0.952 -0.212,1.4214 -0.095,0.5973 -0.1973,1.1866 -0.3066,1.768 -0.097,0.5266 -0.2014,1.0466 -0.312,1.56 -0.112,0.5253 -0.232,1.044 -0.356,1.556 -0.1467,0.604 -0.3027,1.1986 -0.4654,1.7853 -0.1266,0.4587 -0.2573,0.9147 -0.3933,1.3627 -0.216,0.704 -0.448,1.3906 -0.6867,2.0666 -0.1306,0.368 -0.2533,0.74 -0.3906,1.1 -0.432,1.1387 -0.8947,2.2454 -1.3947,3.3067 -0.3893,0.824 -0.7933,1.6293 -1.2227,2.4067 h -10e-4 c -0.208,0.3787 -0.4373,0.7307 -0.6546,1.096 l -11.4349,8.5885 69.7749,-39.4583 1.0666,-424.10751" id="path14" sodipodi:nodetypes="cccccccccccscscccccccccccscccccccccccccccccccccccccsccccccsscccccccccccccccccsccccccccccccccccccccccccccccsccscccscscccsssccccccscccccccscccccsccccccccccccccccccccccccccc" style="fill:#5d658c;fill-opacity:1;fill-rule:nonzero;stroke:none;stroke-width:0.133333"></path>
    <path d="m 1034.3053,1028.2547 c 0.38,0.592 0.76,1.184 1.1307,1.7813 0.4173,0.672 0.824,1.3507 1.232,2.028 0.3346,0.5573 0.6706,1.1134 0.9986,1.6747 0.968,1.6573 1.908,3.328 2.8134,5.0173 0.3306,0.616 0.6506,1.2374 0.9733,1.8587 0.34,0.652 0.6827,1.3027 1.0133,1.9586 0.4614,0.924 0.912,1.8507 1.356,2.78 0.144,0.3014 0.2934,0.5987 0.4347,0.9 0.5653,1.2 1.1107,2.408 1.6427,3.6187 0.14,0.32 0.2746,0.6413 0.412,0.9627 0.388,0.8986 0.7693,1.8013 1.1373,2.7066 0.1693,0.412 0.3347,0.8267 0.4987,1.24 0.3466,0.8707 0.6826,1.744 1.0106,2.6174 0.14,0.3747 0.284,0.7466 0.4214,1.12 0.4213,1.1506 0.8266,2.3027 1.216,3.456 l 0.1026,0.292 c 0.4187,1.2493 0.8147,2.5027 1.1947,3.7533 0.124,0.4067 0.2373,0.8134 0.356,1.2187 0.252,0.8613 0.5,1.72 0.732,2.5813 0.1307,0.4787 0.2547,0.9587 0.3787,1.4373 0.2093,0.8054 0.4093,1.6094 0.6013,2.4134 0.1133,0.476 0.2253,0.9506 0.3333,1.4266 0.1867,0.8294 0.3614,1.656 0.5307,2.484 0.089,0.436 0.1827,0.8734 0.2653,1.3107 0.2094,1.084 0.4014,2.1667 0.576,3.2467 0.027,0.1533 0.056,0.3093 0.081,0.464 0.1654,1.0453 0.304,2.0866 0.4374,3.1266 l 0.836,-369.14528 c 0.04,-14.56533 -10.2107,-32.30933 -22.8854,-39.628 L 799.12132,541.27069 c -12.676,-7.31866 -22.984,-1.444 -23.02533,13.12134 l -0.35734,157.61199 c 0.204,0.20267 0.40934,0.39867 0.612,0.604 0.59067,0.59467 1.17734,1.196 1.76134,1.79867 0.932,0.96133 1.85866,1.93333 2.77866,2.91333 0.58267,0.62 1.16534,1.24134 1.74267,1.868 0.92,1.00134 1.83067,2.016 2.73867,3.036 0.53733,0.60267 1.07733,1.20134 1.60933,1.81067 1.00667,1.15067 1.99866,2.32 2.988,3.49467 0.40933,0.48533 0.82533,0.964 1.232,1.45333 1.42933,1.72133 2.84266,3.46667 4.236,5.23333 0.24133,0.30534 0.476,0.62 0.71733,0.92667 1.31067,1.676 2.60267,3.372 3.87733,5.08533 0.552,0.73867 1.10134,1.48267 1.64667,2.22934 0.55333,0.75866 1.104,1.51866 1.652,2.284 0.62,0.87066 1.236,1.74666 1.848,2.62399 0.53467,0.768 1.06933,1.536 1.59867,2.30934 0.44266,0.65066 0.87733,1.30533 1.316,1.95866 1.34666,2.008 2.672,4.03467 3.96933,6.08 0.204,0.32134 0.41333,0.636 0.616,0.95867 1.44667,2.30133 2.85467,4.628 4.23867,6.972 0.476,0.808 0.94933,1.62133 1.41866,2.43467 0.47734,0.828 0.95467,1.65466 1.424,2.488 0.52667,0.93466 1.044,1.87466 1.56,2.81466 0.45734,0.83334 0.916,1.66667 1.36534,2.504 0.40533,0.75467 0.8,1.51334 1.19733,2.272 0.72267,1.37734 1.436,2.75734 2.13467,4.14534 0.39466,0.78 0.78666,1.56266 1.17333,2.34666 0.55067,1.11867 1.09067,2.24 1.62667,3.364 0.40133,0.84267 0.804,1.684 1.19733,2.53067 0.46133,0.996 0.91333,1.99467 1.36267,2.99467 0.40666,0.90133 0.81333,1.80133 1.208,2.70533 0.408,0.92933 0.80266,1.86267 1.19866,2.79467 0.39734,0.936 0.79467,1.87066 1.18,2.80933 0.39467,0.95867 0.776,1.92 1.15867,2.88 0.36933,0.92933 0.74,1.85733 1.09867,2.78667 0.38,0.988 0.74666,1.97733 1.11333,2.96533 0.34,0.91467 0.68133,1.82667 1.00933,2.74133 0.39067,1.08934 0.76534,2.18 1.14,3.272 0.296,0.86 0.59734,1.72134 0.884,2.58267 0.38934,1.176 0.76,2.35467 1.132,3.532 0.25067,0.79333 0.50934,1.588 0.752,2.38267 0.42934,1.41066 0.83334,2.82133 1.236,4.23333 0.18534,0.648 0.384,1.29733 0.56267,1.94667 0.98133,0.26133 1.96933,0.548 2.96267,0.848 1.21466,0.37066 2.43866,0.772 3.67066,1.20266 0.33467,0.11734 0.67334,0.24667 1.01067,0.368 0.888,0.32134 1.77733,0.65467 2.67333,1.00667 0.43467,0.172 0.872,0.35067 1.308,0.528 0.81067,0.332 1.62534,0.67867 2.44134,1.03733 0.43866,0.19067 0.876,0.38134 1.316,0.58134 0.88533,0.40133 1.77466,0.824 2.66666,1.25733 0.352,0.17067 0.70134,0.332 1.05467,0.50667 1.23867,0.616 2.484,1.25866 3.73467,1.93466 1.08133,0.584 2.16666,1.188 3.256,1.81734 0.77466,0.448 1.544,0.92266 2.31466,1.388 0.75867,0.45866 1.51734,0.916 2.272,1.392 0.59334,0.372 1.184,0.75866 1.77334,1.14266 0.78266,0.50934 1.564,1.02134 2.34133,1.548 0.58533,0.39467 1.16667,0.8 1.74667,1.20667 0.8,0.55733 1.59733,1.12267 2.39066,1.69733 0.568,0.41334 1.13467,0.82934 1.69867,1.25067 0.844,0.62933 1.68133,1.27067 2.51867,1.92 0.53466,0.416 1.06933,0.828 1.60133,1.252 0.95733,0.76267 1.90933,1.54533 2.85733,2.33333 0.42667,0.35334 0.856,0.7 1.28,1.06134 1.37467,1.164 2.73867,2.35066 4.09067,3.56666 0.17067,0.15467 0.33733,0.31467 0.50667,0.46934 1.18533,1.07466 2.36266,2.168 3.52933,3.28133 0.45333,0.432 0.90133,0.876 1.35067,1.31333 0.87333,0.84934 1.744,1.70534 2.60533,2.576 0.49867,0.50267 0.99333,1.012 1.488,1.52 0.78267,0.808 1.56133,1.62267 2.33333,2.44667 0.49334,0.52533 0.98667,1.04933 1.47467,1.58267 0.77467,0.84266 1.54133,1.69466 2.30533,2.55466 0.456,0.512 0.91334,1.02 1.36534,1.536 0.84533,0.96934 1.68,1.952 2.51066,2.93867 0.35067,0.41466 0.70534,0.824 1.05334,1.24133 1.2,1.44533 2.38533,2.90933 3.55466,4.392 0.18533,0.236 0.36667,0.47733 0.552,0.71467 1.11467,1.424 2.21333,2.86666 3.29867,4.32266 0.47466,0.63867 0.948,1.27867 1.41733,1.92267 0.45867,0.628 0.91733,1.26 1.37067,1.89467 0.528,0.73733 1.04933,1.48266 1.568,2.228 0.44666,0.64 0.89333,1.28 1.33333,1.92533 0.36,0.52667 0.71333,1.06 1.068,1.588 1.09867,1.64 2.18,3.292 3.24133,4.96 0.21067,0.33067 0.42667,0.65733 0.63467,0.98933 1.212,1.92534 2.39067,3.87067 3.548,5.828 0.412,0.69734 0.81733,1.39734 1.22133,2.09734 0.412,0.712 0.82267,1.42266 1.22534,2.13866 0.44133,0.78 0.872,1.564 1.30266,2.348 0.39467,0.72 0.792,1.43867 1.17867,2.16134 0.328,0.612 0.64667,1.228 0.96933,1.84266 0.624,1.18534 1.23734,2.37467 1.84,3.56934 0.332,0.65866 0.66134,1.31733 0.98667,1.97866 0.468,0.948 0.92667,1.89867 1.38,2.85067 0.34,0.712 0.67733,1.42267 1.00933,2.136 0.39067,0.84267 0.77334,1.688 1.15334,2.532 0.34266,0.76133 0.684,1.52133 1.01733,2.28267 0.34,0.77866 0.672,1.56 1.00267,2.34133 0.33733,0.79333 0.67333,1.58533 0.99866,2.38 0.332,0.80533 0.65334,1.612 0.97467,2.42 0.31067,0.78267 0.62267,1.56533 0.924,2.35067 0.32133,0.83333 0.632,1.668 0.94133,2.50266 0.28667,0.772 0.57467,1.544 0.85067,2.316 0.32667,0.91067 0.64,1.82534 0.956,2.73867 0.24933,0.72933 0.50533,1.46133 0.74667,2.192 0.32533,0.98133 0.636,1.964 0.94533,2.94533 0.21467,0.68134 0.43467,1.36267 0.644,2.04267 0.34267,1.13333 0.668,2.26533 0.992,3.39867 0.17867,0.624 0.368,1.24933 0.54,1.872 l 28.152,16.25466 c 1.06133,0.61334 2.11733,1.256 3.16667,1.92 l 0.20666,0.12667 c 1.02534,0.652 2.04534,1.33333 3.05867,2.03333 0.348,0.24 0.69333,0.49334 1.04,0.74 0.67732,0.47867 1.35332,0.96534 2.02402,1.46534 0.412,0.30666 0.8213,0.62266 1.2306,0.93733 0.6067,0.46533 1.2107,0.93733 1.8134,1.41867 0.4413,0.35466 0.88,0.71466 1.3186,1.07866 0.5734,0.47334 1.1427,0.95467 1.7107,1.44267 0.4493,0.38667 0.8987,0.77733 1.344,1.172 0.556,0.49333 1.1093,0.99467 1.6587,1.50133 0.4453,0.40802 0.8893,0.81872 1.3306,1.23602 0.5587,0.5293 1.112,1.0667 1.664,1.6107 0.4094,0.4 0.8187,0.8013 1.2254,1.2106 0.572,0.576 1.136,1.164 1.7,1.7534 0.3733,0.3906 0.7493,0.7773 1.1186,1.1733 0.6534,0.6973 1.296,1.412 1.936,2.1267 0.26,0.2906 0.524,0.5733 0.7827,0.8666 0.9013,1.024 1.792,2.0627 2.6693,3.1187 0.14,0.1667 0.2734,0.34 0.412,0.508 0.74,0.8987 1.4747,1.8053 2.1974,2.7267 0.928,1.1826 1.8413,2.3786 2.7373,3.5933 l 0.036,0.048 c 1.2707,1.7213 2.4973,3.4867 3.7,5.268 0.2827,0.42 0.5693,0.8373 0.848,1.26 0.4347,0.6573 0.86,1.32 1.284,1.984" id="path15" style="fill:#8590c8;fill-opacity:1;fill-rule:nonzero;stroke:none;stroke-width:0.133333"></path>
    <path d="m 1056.12,1115.0467 -0.024,0.1547 c -0.095,0.596 -0.196,1.1866 -0.3054,1.768 -0.097,0.5266 -0.204,1.0453 -0.3133,1.5599 -0.1133,0.5254 -0.2307,1.0427 -0.356,1.556 -0.1467,0.604 -0.3027,1.1987 -0.4653,1.7854 -0.128,0.46 -0.256,0.9146 -0.3947,1.3626 -0.2146,0.704 -0.4466,1.3894 -0.6853,2.068 -0.1293,0.3667 -0.2547,0.7387 -0.3893,1.0974 -0.4347,1.14 -0.8947,2.2466 -1.3947,3.308 -0.3893,0.824 -0.7947,1.6306 -1.224,2.4066 v 0 c -0.436,0.788 -0.8947,1.5507 -1.3707,2.288 -0.096,0.1507 -0.1986,0.292 -0.296,0.4387 -0.3626,0.5466 -0.7346,1.0786 -1.1173,1.596 -0.1547,0.2093 -0.312,0.4133 -0.472,0.6186 -0.364,0.4694 -0.7373,0.9254 -1.1187,1.3694 -0.148,0.1706 -0.2907,0.3453 -0.44,0.512 -0.5253,0.588 -1.064,1.1573 -1.6226,1.6986 l -0.2454,0.2254 c -0.4853,0.4626 -0.984,0.908 -1.4933,1.3346 -0.1854,0.1547 -0.3734,0.3054 -0.5627,0.456 -0.436,0.3507 -0.8813,0.6867 -1.3347,1.0134 -0.188,0.1333 -0.3719,0.2706 -0.5613,0.4 -0.632,0.4333 -1.2733,0.848 -1.9333,1.232 l 18.7906,-13.6541 -0.6707,-16.5979" id="path16" sodipodi:nodetypes="ccccccccccsscsscccccccccccc" style="fill:#b6bcde;fill-opacity:1;fill-rule:nonzero;stroke:none;stroke-width:0.133333"></path>
    <path d="M 1011.46,735.19202 820.64132,626.94269 c -2.61334,-1.50933 -4.74,-0.29733 -4.748,2.70533 -0.008,3.00267 2.104,6.66267 4.71733,8.172 L 1011.428,746.06936 c 2.6133,1.50799 4.74,0.29733 4.7493,-2.70667 0.01,-3.00267 -2.104,-6.66267 -4.7173,-8.17067" id="path17" style="fill:#fbefed;fill-opacity:1;fill-rule:nonzero;stroke:none;stroke-width:0.133333"></path>
    <path d="M 1011.46,801.89735 820.64132,693.64802 c -2.61334,-1.508 -4.74,-0.29733 -4.748,2.70667 -0.008,3.00267 2.104,6.66267 4.71733,8.17067 L 1011.428,812.77602 c 2.6133,1.50933 4.74,0.296 4.7493,-2.70667 0.01,-3.00266 -2.104,-6.66266 -4.7173,-8.172" id="path18" style="fill:#fbefed;fill-opacity:1;fill-rule:nonzero;stroke:none;stroke-width:0.133333"></path>
    <path d="M 1011.46,868.60535 820.64132,760.35469 c -2.61334,-1.50934 -4.74,-0.296 -4.748,2.70666 -0.008,3.00267 2.104,6.66267 4.71733,8.17067 L 1011.428,879.48269 c 2.6133,1.50933 4.74,0.29733 4.7493,-2.70534 0.01,-3.004 -2.104,-6.66266 -4.7173,-8.172" id="path19" style="fill:#fbefed;fill-opacity:1;fill-rule:nonzero;stroke:none;stroke-width:0.133333"></path>
    <path d="M 1011.46,935.31202 820.64132,827.06269 c -2.61334,-1.50934 -4.74,-0.29734 -4.748,2.70533 -0.008,3.004 2.104,6.66267 4.71733,8.172 L 1011.428,946.18935 c 2.6133,1.50933 4.74,0.29733 4.7493,-2.70667 0.01,-3.00266 -2.104,-6.66133 -4.7173,-8.17066" id="path20" style="fill:#fbefed;fill-opacity:1;fill-rule:nonzero;stroke:none;stroke-width:0.133333"></path>
    <path d="M 1011.46,1002.0187 820.64132,893.76935 c -2.61334,-1.50933 -4.74,-0.29733 -4.748,2.70533 -0.008,3.00267 2.104,6.66267 4.71733,8.172 L 1011.428,1012.896 c 2.6133,1.508 4.74,0.2973 4.7493,-2.7067 0.01,-3.0026 -2.104,-6.6626 -4.7173,-8.1706" id="path21" style="fill:#fbefed;fill-opacity:1;fill-rule:nonzero;stroke:none;stroke-width:0.133333"></path>
    <path d="m 622.40532,730.25202 c -0.44266,-0.23466 -0.884,-0.46266 -1.324,-0.688 -0.34133,-0.172 -0.68533,-0.36133 -1.02533,-0.52933 -0.54667,-0.27067 -1.08667,-0.51333 -1.63067,-0.768 -0.39066,-0.18533 -0.78266,-0.37467 -1.17066,-0.552 -0.16,-0.0733 -0.32267,-0.156 -0.48134,-0.22667 -1.08666,-0.48666 -2.16533,-0.944 -3.23866,-1.37333 l -0.0107,-0.005 c -1.09733,-0.43867 -2.18667,-0.848 -3.268,-1.22934 -0.14133,-0.0493 -0.27867,-0.0893 -0.42,-0.13733 -0.392,-0.13467 -0.77867,-0.25467 -1.168,-0.38267 -0.55333,-0.18133 -1.10933,-0.376 -1.65733,-0.54133 -0.27467,-0.0827 -0.54267,-0.14533 -0.816,-0.22533 -0.47867,-0.13867 -0.95467,-0.26667 -1.43067,-0.39467 -0.36667,-0.0973 -0.73867,-0.21333 -1.104,-0.304 -0.384,-0.096 -0.76,-0.16533 -1.14133,-0.25467 -0.476,-0.10933 -0.952,-0.21866 -1.424,-0.316 -0.252,-0.052 -0.508,-0.12 -0.75734,-0.168 -0.448,-0.088 -0.884,-0.14266 -1.328,-0.21866 -0.548,-0.096 -1.09733,-0.19334 -1.64133,-0.27067 -0.192,-0.028 -0.388,-0.0707 -0.57867,-0.096 -0.45333,-0.0613 -0.89466,-0.0867 -1.34266,-0.136 -0.58534,-0.0653 -1.17067,-0.13467 -1.75067,-0.18 -0.16933,-0.0133 -0.344,-0.04 -0.51333,-0.052 -0.396,-0.028 -0.77734,-0.02 -1.16934,-0.0373 -0.69066,-0.0333 -1.38,-0.064 -2.06133,-0.0693 -0.19067,-10e-4 -0.388,-0.02 -0.57733,-0.0187 -0.75467,0.003 -1.50134,0.0253 -2.24134,0.0627 l -0.284,0.02 c -0.56266,0.0307 -1.124,0.0653 -1.67866,0.116 -0.352,0.032 -0.69734,0.0827 -1.04667,0.12267 -0.26267,0.032 -0.528,0.0587 -0.79067,0.0947 -0.956,0.12666 -1.904,0.27466 -2.83333,0.46 l -0.0853,0.0213 c -0.256,0.0507 -0.50134,0.12267 -0.75467,0.17867 -0.772,0.172 -1.54,0.352 -2.29333,0.564 -0.368,0.104 -0.72667,0.22933 -1.08934,0.34266 -0.48133,0.15067 -0.97066,0.28534 -1.44266,0.452 l -0.35067,0.144 c -0.72933,0.26667 -1.43867,0.568 -2.14533,0.87334 -0.344,0.14933 -0.696,0.28266 -1.03467,0.44133 -1.03467,0.484 -2.048,1.00533 -3.032,1.57733 l -9.39733,5.46 c 0.984,-0.57066 1.99733,-1.092 3.03066,-1.576 0.34,-0.15866 0.69334,-0.292 1.03734,-0.44133 0.70666,-0.30667 1.416,-0.60667 2.144,-0.87333 0.58933,-0.216 1.19066,-0.408 1.79333,-0.59734 0.36267,-0.11333 0.72133,-0.23733 1.09067,-0.34266 0.752,-0.212 1.52,-0.392 2.292,-0.56267 0.25333,-0.056 0.49866,-0.12667 0.75466,-0.17867 0.95734,-0.19466 1.932,-0.35066 2.91867,-0.48266 0.26133,-0.0333 0.528,-0.0613 0.79067,-0.092 0.89866,-0.104 1.80533,-0.188 2.72533,-0.24134 l 0.284,-0.0187 c 0.928,-0.0467 1.872,-0.0507 2.82,-0.044 0.68,0.005 1.36933,0.036 2.06,0.068 0.56,0.0267 1.11733,0.0467 1.684,0.092 0.57733,0.0453 1.164,0.11333 1.74933,0.17866 0.63867,0.0693 1.276,0.13867 1.92267,0.23067 0.54267,0.0787 1.092,0.176 1.64,0.27067 0.692,0.12 1.38533,0.24266 2.084,0.388 0.47333,0.0987 0.94933,0.20666 1.42533,0.31733 0.744,0.17067 1.492,0.356 2.24534,0.55733 0.476,0.12667 0.952,0.256 1.43066,0.39467 0.82,0.23733 1.64534,0.496 2.47467,0.768 0.388,0.128 0.776,0.24533 1.16667,0.38133 2.436,0.84134 4.91066,1.83067 7.41866,2.97067 0.38934,0.17733 0.78134,0.36933 1.17067,0.55333 0.88133,0.41467 1.76667,0.84534 2.656,1.29867 0.44,0.224 0.88133,0.452 1.324,0.68667 1.17867,0.62133 2.36,1.25733 3.55067,1.94533 l 9.39733,-5.46133 c -0.86267,-0.49734 -1.72267,-0.97867 -2.57867,-1.44267 -0.32533,-0.176 -0.64666,-0.332 -0.972,-0.50267" id="path22" style="fill:#5d658c;fill-opacity:1;fill-rule:nonzero;stroke:none;stroke-width:0.133333"></path>
    <path d="m 1066.3773,1090.0814 c -0.01,-0.1854 -0.019,-0.3707 -0.025,-0.5574 -0.015,-0.3973 -0.037,-0.7947 -0.056,-1.1933 -0.024,-0.468 -0.037,-0.932 -0.065,-1.4 -0.024,-0.3587 -0.06,-0.7187 -0.087,-1.0774 -0.031,-0.4199 -0.063,-0.8413 -0.1,-1.2626 -0.024,-0.2773 -0.04,-0.552 -0.067,-0.8294 -0.057,-0.5973 -0.132,-1.1986 -0.2,-1.7999 -0.039,-0.348 -0.073,-0.6961 -0.116,-1.0454 l -0.039,-0.3467 c -0.1387,-1.0879 -0.2933,-2.1786 -0.4667,-3.2733 l -0.012,-0.069 c -0.024,-0.1573 -0.056,-0.3147 -0.08,-0.4707 -0.1493,-0.916 -0.304,-1.8333 -0.4773,-2.752 -0.029,-0.164 -0.067,-0.328 -0.099,-0.492 -0.084,-0.436 -0.1773,-0.872 -0.2667,-1.3093 -0.108,-0.532 -0.2066,-1.064 -0.324,-1.5973 -0.064,-0.296 -0.14,-0.5934 -0.2066,-0.888 -0.1067,-0.476 -0.2187,-0.9494 -0.3307,-1.424 -0.089,-0.3667 -0.1667,-0.7334 -0.2587,-1.1014 -0.108,-0.4386 -0.232,-0.8773 -0.3453,-1.3173 -0.124,-0.4787 -0.2467,-0.956 -0.3773,-1.4333 -0.064,-0.236 -0.12,-0.4707 -0.184,-0.7067 -0.1734,-0.624 -0.3654,-1.2493 -0.5494,-1.876 -0.1173,-0.4067 -0.2306,-0.812 -0.3546,-1.2187 l -0.1014,-0.3453 c -0.344,-1.1227 -0.7053,-2.2453 -1.08,-3.368 l -0.015,-0.04 -0.1,-0.2893 c -0.3373,-0.9974 -0.6827,-1.9947 -1.0427,-2.9907 -0.056,-0.156 -0.1186,-0.3133 -0.176,-0.4693 -0.1373,-0.372 -0.28,-0.744 -0.4186,-1.1174 -0.2027,-0.5333 -0.396,-1.0693 -0.604,-1.6026 -0.1307,-0.34 -0.2734,-0.6774 -0.408,-1.016 -0.164,-0.4134 -0.3307,-0.828 -0.4987,-1.2414 -0.124,-0.3026 -0.24,-0.6053 -0.3653,-0.9066 -0.2507,-0.604 -0.5147,-1.204 -0.7747,-1.8067 -0.136,-0.3187 -0.2693,-0.636 -0.408,-0.9533 l -0.148,-0.344 c -0.464,-1.052 -0.9427,-2.1 -1.432,-3.144 l -0.065,-0.136 c -0.1387,-0.296 -0.2867,-0.588 -0.4267,-0.8827 -0.3866,-0.8093 -0.7706,-1.6173 -1.172,-2.4213 -0.063,-0.1254 -0.1306,-0.2494 -0.1933,-0.3747 -0.3293,-0.6547 -0.6707,-1.3027 -1.0093,-1.9547 -0.2734,-0.5253 -0.5374,-1.0573 -0.8174,-1.58 l -0.1586,-0.2826 c -0.9054,-1.6894 -1.8467,-3.3614 -2.8134,-5.0174 -0.083,-0.1386 -0.156,-0.2853 -0.2386,-0.424 -0.2467,-0.4213 -0.5094,-0.8333 -0.76,-1.252 -0.408,-0.6773 -0.8134,-1.3533 -1.2307,-2.0253 -0.3733,-0.5987 -0.7533,-1.1933 -1.1347,-1.7867 -0.4226,-0.6626 -0.8466,-1.3226 -1.2813,-1.9773 -0.1427,-0.2173 -0.2787,-0.44 -0.424,-0.6573 -0.1373,-0.2054 -0.288,-0.4014 -0.4267,-0.608 -1.204,-1.7814 -2.4279,-3.5454 -3.6973,-5.2667 h -10e-4 l -0.025,-0.033 c -0.9,-1.22 -1.816,-2.4226 -2.748,-3.608 l -0.1213,-0.1586 c -0.6854,-0.872 -1.3854,-1.728 -2.0867,-2.58 -0.1347,-0.1627 -0.264,-0.332 -0.4,-0.4934 l -0.024,-0.032 c -0.8293,-0.996 -1.668,-1.9786 -2.5187,-2.9453 l -0.1293,-0.144 c -0.256,-0.292 -0.5187,-0.5733 -0.7773,-0.86 -0.54,-0.6053 -1.0774,-1.2133 -1.6267,-1.804 l -0.3133,-0.328 c -0.3694,-0.396 -0.744,-0.7813 -1.1174,-1.1707 -0.4106,-0.43065 -0.8173,-0.86932 -1.232,-1.29332 -0.156,-0.15733 -0.3146,-0.30666 -0.4706,-0.46266 -0.404,-0.408 -0.812,-0.808 -1.2214,-1.20934 -0.352,-0.344 -0.6986,-0.70133 -1.0533,-1.04133 -0.2027,-0.19333 -0.4107,-0.37733 -0.6133,-0.57067 -0.4414,-0.41733 -0.8854,-0.828 -1.3307,-1.236 -0.308,-0.284 -0.6107,-0.57866 -0.9213,-0.85866 -0.244,-0.21867 -0.4947,-0.42667 -0.7387,-0.64267 -0.4453,-0.396 -0.8933,-0.78533 -1.3427,-1.172 -0.2733,-0.23467 -0.5413,-0.48133 -0.816,-0.712 -0.2973,-0.252 -0.6013,-0.488 -0.9,-0.73467 -0.4373,-0.36266 -0.8746,-0.72133 -1.3146,-1.07466 -0.2294,-0.184 -0.4547,-0.37734 -0.6854,-0.55867 -0.3733,-0.29467 -0.7546,-0.57333 -1.1306,-0.86267 -0.408,-0.31466 -0.8174,-0.63066 -1.2294,-0.93733 -0.168,-0.12533 -0.332,-0.25867 -0.5,-0.38133 -0.508,-0.37467 -1.0213,-0.72667 -1.532,-1.08934 -0.344,-0.244 -0.6853,-0.49466 -1.0306,-0.73333 l -0.2707,-0.192 c -0.9173,-0.628 -1.84,-1.23867 -2.768,-1.828 l -0.025,-0.016 -0.1986,-0.12133 c -0.8414,-0.532 -1.684,-1.05334 -2.5334,-1.55334 -0.2133,-0.12533 -0.4266,-0.248 -0.6413,-0.372 l -28.14269,-16.24933 c -0.0387,-0.13867 -0.0773,-0.27733 -0.116,-0.416 -0.13333,-0.48 -0.28266,-0.96 -0.41866,-1.44 -0.32667,-1.136 -0.65067,-2.272 -0.99734,-3.408 -0.04,-0.136 -0.076,-0.27067 -0.11733,-0.40667 -0.168,-0.548 -0.35467,-1.09466 -0.528,-1.64266 -0.308,-0.97867 -0.61733,-1.95867 -0.94133,-2.93734 -0.064,-0.19333 -0.12134,-0.38533 -0.18534,-0.57733 -0.18133,-0.54133 -0.38,-1.08133 -0.56533,-1.62267 -0.31333,-0.91066 -0.62667,-1.82266 -0.952,-2.732 -0.0867,-0.23866 -0.164,-0.47733 -0.25067,-0.716 -0.19333,-0.53466 -0.404,-1.068 -0.60266,-1.604 -0.30934,-0.83466 -0.62,-1.668 -0.94,-2.50133 -0.0987,-0.25733 -0.19067,-0.516 -0.29067,-0.77467 -0.20533,-0.52666 -0.42533,-1.052 -0.63467,-1.57733 -0.32133,-0.80667 -0.64266,-1.612 -0.97333,-2.41733 -0.10933,-0.26534 -0.21067,-0.532 -0.32,-0.79734 -0.22133,-0.53066 -0.456,-1.056 -0.68,-1.58533 -0.33067,-0.78 -0.66133,-1.56 -1.00133,-2.336 -0.11467,-0.264 -0.22267,-0.52933 -0.33867,-0.79333 -0.22267,-0.50134 -0.45733,-0.99867 -0.68267,-1.49867 -0.38,-0.84133 -0.75866,-1.68133 -1.148,-2.52 -0.12933,-0.28133 -0.25333,-0.56533 -0.38533,-0.84667 -0.204,-0.436 -0.42133,-0.86666 -0.62933,-1.30266 -0.452,-0.948 -0.90934,-1.896 -1.376,-2.84134 -0.164,-0.33333 -0.31867,-0.66933 -0.484,-1.00266 -0.16267,-0.32667 -0.33867,-0.65067 -0.50267,-0.97734 -0.60267,-1.19466 -1.21733,-2.384 -1.84,-3.57066 -0.20267,-0.38667 -0.396,-0.77867 -0.6,-1.16534 -0.12133,-0.22666 -0.25067,-0.452 -0.372,-0.68 -0.38667,-0.72133 -0.78133,-1.43733 -1.176,-2.15466 -0.43067,-0.78534 -0.86267,-1.57067 -1.30267,-2.35067 -0.40266,-0.716 -0.81466,-1.428 -1.22666,-2.14 -0.29734,-0.516 -0.58667,-1.03733 -0.88934,-1.552 -0.108,-0.184 -0.224,-0.36267 -0.33333,-0.54667 -1.156,-1.95866 -2.336,-3.90266 -3.54533,-5.82533 -0.21067,-0.33333 -0.42667,-0.66133 -0.63734,-0.99333 -1.06,-1.668 -2.14266,-3.31867 -3.24133,-4.95734 -0.184,-0.27466 -0.35733,-0.556 -0.54,-0.82933 -0.17333,-0.25467 -0.35333,-0.50533 -0.528,-0.76 -0.43867,-0.644 -0.884,-1.28133 -1.328,-1.92 -0.52133,-0.748 -1.04533,-1.496 -1.576,-2.23733 -0.45067,-0.632 -0.90667,-1.26 -1.364,-1.888 -0.30267,-0.41334 -0.59733,-0.83334 -0.90267,-1.24667 -0.17066,-0.22933 -0.348,-0.45067 -0.51866,-0.68 -1.08667,-1.46 -2.188,-2.904 -3.304,-4.33067 -0.14667,-0.18666 -0.28667,-0.38 -0.43334,-0.56666 l -0.11333,-0.13867 c -1.16933,-1.48267 -2.35467,-2.94666 -3.55467,-4.392 l -0.16533,-0.204 c -0.292,-0.352 -0.59467,-0.692 -0.88933,-1.04266 -0.832,-0.98667 -1.66667,-1.96934 -2.51067,-2.93734 -0.132,-0.14933 -0.25867,-0.30533 -0.38933,-0.456 -0.32134,-0.364 -0.65067,-0.716 -0.97334,-1.07733 -0.76533,-0.86 -1.53333,-1.71333 -2.30799,-2.55733 -0.208,-0.22534 -0.408,-0.45867 -0.616,-0.68267 -0.28267,-0.304 -0.572,-0.59467 -0.85467,-0.89733 -0.776,-0.82534 -1.55467,-1.64267 -2.34,-2.452 -0.28,-0.28667 -0.552,-0.58667 -0.83333,-0.872 -0.21467,-0.21867 -0.436,-0.42667 -0.652,-0.644 -0.86267,-0.87334 -1.73334,-1.72934 -2.608,-2.58134 -0.324,-0.31466 -0.64134,-0.64266 -0.96667,-0.956 -0.12533,-0.11866 -0.25467,-0.232 -0.38,-0.352 -1.17333,-1.11866 -2.35467,-2.21733 -3.54667,-3.29866 -0.14533,-0.13334 -0.288,-0.272 -0.43466,-0.404 l -0.056,-0.0493 c -1.352,-1.21733 -2.71734,-2.404 -4.092,-3.56933 l -0.276,-0.24 c -0.332,-0.28133 -0.67067,-0.54267 -1.004,-0.82 -0.948,-0.78933 -1.9,-1.57067 -2.85867,-2.33333 -0.19467,-0.156 -0.38533,-0.32134 -0.58,-0.47467 -0.336,-0.26533 -0.67867,-0.51333 -1.016,-0.77467 -0.83733,-0.64933 -1.67733,-1.29333 -2.52133,-1.92133 -0.27867,-0.20933 -0.552,-0.42933 -0.83067,-0.63467 -0.288,-0.21066 -0.58,-0.40666 -0.86667,-0.616 -0.79466,-0.576 -1.59066,-1.14 -2.39066,-1.69733 -0.34667,-0.24267 -0.688,-0.49867 -1.036,-0.73733 -0.23467,-0.16134 -0.47334,-0.308 -0.70934,-0.46934 -0.77733,-0.52666 -1.56,-1.03866 -2.34266,-1.548 -0.40134,-0.26 -0.79734,-0.536 -1.2,-0.792 -0.18934,-0.12 -0.38267,-0.23066 -0.57334,-0.35066 -0.75333,-0.476 -1.512,-0.932 -2.26933,-1.39067 -0.44933,-0.27067 -0.89333,-0.55733 -1.344,-0.82133 -0.32267,-0.19067 -0.648,-0.38 -0.972,-0.56667 -1.05733,-0.61067 -2.11067,-1.20133 -3.16133,-1.768 l -0.0933,-0.0493 c -1.252,-0.676 -2.496,-1.31867 -3.73466,-1.93467 l -0.21867,-0.11333 c -0.276,-0.13467 -0.54667,-0.25334 -0.82133,-0.38667 -0.89467,-0.43333 -1.78667,-0.85733 -2.67467,-1.26 -0.16667,-0.076 -0.33733,-0.16267 -0.50533,-0.23867 -0.26934,-0.12 -0.53467,-0.22266 -0.804,-0.34 -0.81334,-0.35733 -1.624,-0.70133 -2.432,-1.032 -0.24667,-0.10133 -0.49734,-0.21733 -0.744,-0.316 -0.192,-0.0773 -0.38,-0.14 -0.57067,-0.21466 -0.876,-0.344 -1.74667,-0.67067 -2.616,-0.98534 -0.26667,-0.096 -0.536,-0.208 -0.80133,-0.30133 l -0.25734,-0.084 c -1.22533,-0.428 -2.44533,-0.82933 -3.65466,-1.196 l -0.108,-0.036 c -0.97067,-0.29333 -1.93734,-0.56667 -2.89734,-0.82267 l -0.0973,-0.35066 c -0.14267,-0.516 -0.30533,-1.032 -0.452,-1.54934 -0.40533,-1.42266 -0.81333,-2.84533 -1.24667,-4.27066 -0.0427,-0.13867 -0.08,-0.28 -0.12266,-0.41867 -0.2,-0.65067 -0.42134,-1.30267 -0.62667,-1.95333 -0.37333,-1.184 -0.74533,-2.36534 -1.13733,-3.548 -0.0693,-0.20667 -0.13067,-0.416 -0.2,-0.62267 -0.21867,-0.65067 -0.456,-1.29867 -0.67867,-1.948 -0.37733,-1.096 -0.75333,-2.192 -1.14667,-3.28667 -0.0933,-0.26 -0.17866,-0.52133 -0.272,-0.78266 -0.23733,-0.652 -0.49333,-1.30134 -0.73466,-1.952 -0.368,-0.99334 -0.736,-1.98267 -1.11734,-2.972 -0.10933,-0.28534 -0.21066,-0.57334 -0.32133,-0.85734 -0.25067,-0.64533 -0.52,-1.28533 -0.776,-1.93066 -0.38267,-0.95867 -0.764,-1.92 -1.15867,-2.87734 -0.12133,-0.296 -0.23466,-0.592 -0.35733,-0.888 -0.26667,-0.644 -0.55333,-1.284 -0.82533,-1.92666 -0.396,-0.93334 -0.79067,-1.86534 -1.19734,-2.79334 -0.128,-0.296 -0.24933,-0.592 -0.38,-0.88666 -0.268,-0.608 -0.55333,-1.21067 -0.82666,-1.816 -0.45067,-1.00267 -0.90267,-2.00267 -1.36667,-3.00134 -0.14533,-0.316 -0.284,-0.63333 -0.432,-0.948 -0.24667,-0.528 -0.51067,-1.05066 -0.76267,-1.57733 -0.536,-1.12667 -1.07733,-2.24933 -1.62933,-3.37067 -0.18667,-0.37733 -0.36133,-0.76 -0.55067,-1.13733 -0.2,-0.40267 -0.41733,-0.80133 -0.62,-1.20533 -0.7,-1.38934 -1.41333,-2.772 -2.13866,-4.15067 -0.23867,-0.456 -0.464,-0.91733 -0.70534,-1.37067 -0.16,-0.3 -0.328,-0.59733 -0.48933,-0.89866 -0.45067,-0.83867 -0.91067,-1.67334 -1.36933,-2.50934 -0.51467,-0.93866 -1.032,-1.87733 -1.55734,-2.80933 -0.46933,-0.83333 -0.94666,-1.66133 -1.424,-2.48933 -0.328,-0.56934 -0.64666,-1.144 -0.97866,-1.71067 -0.144,-0.24533 -0.29867,-0.48133 -0.44267,-0.72667 -1.38267,-2.344 -2.79067,-4.67066 -4.23733,-6.97333 -0.20267,-0.32 -0.41067,-0.63467 -0.61334,-0.95333 -1.29866,-2.048 -2.624,-4.07334 -3.972,-6.084 -0.21333,-0.31867 -0.41466,-0.64667 -0.62933,-0.96533 -0.22533,-0.332 -0.45867,-0.65734 -0.684,-0.988 -0.53067,-0.776 -1.06533,-1.548 -1.60267,-2.31734 -0.61066,-0.876 -1.224,-1.75066 -1.844,-2.61733 -0.548,-0.76667 -1.1,-1.528 -1.65333,-2.288 -0.34,-0.46533 -0.672,-0.93867 -1.01467,-1.40133 -0.208,-0.28134 -0.42533,-0.552 -0.63333,-0.832 -1.276,-1.712 -2.568,-3.40667 -3.87733,-5.08267 -0.18934,-0.24133 -0.37067,-0.492 -0.56,-0.73333 l -0.15734,-0.19334 c -1.39333,-1.768 -2.80533,-3.512 -4.236,-5.23466 l -0.184,-0.228 c -0.34666,-0.416 -0.704,-0.81467 -1.05066,-1.228 -0.98934,-1.17334 -1.98,-2.34134 -2.984,-3.49067 -0.15067,-0.17333 -0.29734,-0.35333 -0.44934,-0.52533 -0.38266,-0.436 -0.776,-0.85334 -1.16,-1.28534 -0.90933,-1.02266 -1.82133,-2.03866 -2.744,-3.04133 -0.24,-0.26 -0.472,-0.52933 -0.712,-0.788 -0.336,-0.364 -0.684,-0.712 -1.02266,-1.072 -0.92267,-0.984 -1.85067,-1.95733 -2.78533,-2.92 -0.32667,-0.33733 -0.64534,-0.68533 -0.97334,-1.02 -0.25866,-0.264 -0.52533,-0.51467 -0.78533,-0.776 -1.02267,-1.03333 -2.05467,-2.04933 -3.09067,-3.056 -0.38266,-0.37333 -0.75733,-0.76133 -1.14133,-1.12933 -0.15333,-0.14667 -0.31067,-0.28534 -0.464,-0.43067 -1.372,-1.31067 -2.756,-2.596 -4.14933,-3.86 -0.18934,-0.172 -0.37334,-0.35333 -0.564,-0.524 l -0.076,-0.0667 c -1.60667,-1.44666 -3.228,-2.85733 -4.86134,-4.24133 l -0.31466,-0.27467 c -0.38667,-0.32666 -0.78267,-0.63333 -1.172,-0.95733 -1.136,-0.94533 -2.276,-1.88133 -3.42534,-2.79467 -0.22666,-0.18133 -0.44933,-0.37466 -0.67733,-0.55333 -0.39867,-0.316 -0.80533,-0.60933 -1.20667,-0.92133 -0.996,-0.77334 -1.996,-1.53734 -3,-2.28667 -0.328,-0.244 -0.65066,-0.504 -0.97866,-0.74533 -0.34134,-0.252 -0.68934,-0.48534 -1.032,-0.73334 -0.944,-0.68533 -1.892,-1.35866 -2.84267,-2.02133 -0.40933,-0.28533 -0.81067,-0.58667 -1.22,-0.86667 -0.28,-0.192 -0.56267,-0.36666 -0.84267,-0.55733 -0.928,-0.628 -1.86,-1.23867 -2.79466,-1.84667 -0.47067,-0.30533 -0.93867,-0.63066 -1.412,-0.932 -0.22534,-0.14266 -0.45334,-0.27333 -0.67867,-0.416 -0.89867,-0.56533 -1.80267,-1.112 -2.70667,-1.65733 -0.52933,-0.31867 -1.05333,-0.65733 -1.58533,-0.96933 -0.384,-0.22667 -0.768,-0.45067 -1.15333,-0.67334 -1.15734,-0.668 -2.30934,-1.30933 -3.45734,-1.93333 l -0.296,-0.16533 c -0.17066,-0.0933 -0.33866,-0.17334 -0.50933,-0.26534 -1.28933,-0.69066 -2.57467,-1.35733 -3.85333,-1.996 -0.15734,-0.0773 -0.31734,-0.168 -0.47467,-0.24533 l -0.20533,-0.096 c -1.39734,-0.688 -2.78534,-1.34 -4.168,-1.96533 -0.13467,-0.06 -0.26934,-0.12934 -0.40267,-0.18934 -0.172,-0.076 -0.34133,-0.14133 -0.51333,-0.21733 -1.388,-0.61467 -2.772,-1.20667 -4.144,-1.75733 l -0.06,-0.0267 -0.0147,-0.005 c -1.42933,-0.572 -2.84667,-1.09867 -4.26,-1.60267 -0.16267,-0.0587 -0.32933,-0.12667 -0.49333,-0.184 -0.124,-0.0453 -0.24534,-0.0787 -0.36934,-0.12133 -1.37733,-0.48 -2.74666,-0.93067 -4.10666,-1.344 l -0.25067,-0.0827 c -0.14933,-0.044 -0.29467,-0.0773 -0.44267,-0.12133 -1.43866,-0.428 -2.868,-0.82667 -4.28666,-1.18267 l -0.144,-0.04 -0.0413,-0.009 c -1.49333,-0.372 -2.96933,-0.69334 -4.43733,-0.984 -0.14267,-0.0293 -0.288,-0.0693 -0.42933,-0.0973 -0.14134,-0.0267 -0.28134,-0.0493 -0.42267,-0.0747 -0.384,-0.0733 -0.76533,-0.14 -1.14667,-0.20667 -0.50533,-0.0893 -1.00933,-0.176 -1.512,-0.256 -0.38666,-0.0613 -0.77066,-0.11733 -1.156,-0.17333 -0.27733,-0.04 -0.55866,-0.0867 -0.836,-0.12534 -0.2,-0.0267 -0.39866,-0.0453 -0.59866,-0.0693 -0.44534,-0.0573 -0.888,-0.10933 -1.33067,-0.15867 -0.45333,-0.0507 -0.90533,-0.0987 -1.356,-0.14133 -0.43867,-0.0413 -0.87733,-0.0787 -1.31467,-0.112 -0.244,-0.02 -0.48933,-0.0453 -0.73333,-0.0627 -0.18933,-0.0133 -0.376,-0.0173 -0.56533,-0.028 -0.496,-0.032 -0.98934,-0.0547 -1.48134,-0.076 -0.41066,-0.0173 -0.82,-0.0333 -1.22933,-0.044 -0.49067,-0.0133 -0.97867,-0.0187 -1.46533,-0.0213 -0.26267,-0.003 -0.53067,-0.0133 -0.792,-0.012 -0.12667,0 -0.25067,0.008 -0.37867,0.009 -0.66,0.007 -1.31467,0.0267 -1.96667,0.0493 -0.284,0.0107 -0.56933,0.016 -0.85066,0.0293 -0.92934,0.0453 -1.852,0.10667 -2.76534,0.188 l -0.032,0.003 -0.144,0.016 c -0.98133,0.0907 -1.95066,0.20666 -2.91466,0.34 -0.28667,0.0387 -0.57334,0.0813 -0.86,0.12533 -0.82267,0.12267 -1.63867,0.26267 -2.448,0.41733 -0.15067,0.0293 -0.304,0.0467 -0.45467,0.0773 l -0.136,0.032 c -1.232,0.24666 -2.44267,0.536 -3.64133,0.85333 -0.212,0.056 -0.42667,0.112 -0.63734,0.17067 -1.17333,0.32533 -2.33066,0.68133 -3.46933,1.07333 l -0.25333,0.08 c -0.19467,0.068 -0.38267,0.14533 -0.576,0.216 -0.50267,0.18133 -1.00267,0.368 -1.49734,0.56267 -0.31333,0.12266 -0.62533,0.248 -0.93466,0.376 -0.49334,0.204 -0.98134,0.416 -1.468,0.632 -0.296,0.132 -0.592,0.26266 -0.88534,0.4 -0.52133,0.24133 -1.036,0.49733 -1.548,0.756 -0.24533,0.124 -0.49466,0.24266 -0.73866,0.36933 -0.74934,0.392 -1.492,0.79733 -2.22267,1.22133 l -9.39733,5.46134 c 0.73067,-0.424 1.47333,-0.82934 2.224,-1.22134 0.244,-0.128 0.492,-0.24533 0.73733,-0.36933 0.512,-0.25867 1.02667,-0.51333 1.54667,-0.75733 0.29466,-0.136 0.592,-0.268 0.888,-0.39867 0.48666,-0.21733 0.97333,-0.42933 1.46666,-0.632 0.30934,-0.128 0.62134,-0.25467 0.93467,-0.376 0.496,-0.19467 0.99467,-0.38133 1.49733,-0.56267 0.276,-0.0987 0.55067,-0.2 0.82934,-0.29466 1.13866,-0.39334 2.296,-0.74934 3.46933,-1.076 0.212,-0.0573 0.424,-0.112 0.63733,-0.16934 1.19734,-0.31866 2.40934,-0.60666 3.64134,-0.85333 0.196,-0.0387 0.39466,-0.0733 0.592,-0.10933 0.80933,-0.15467 1.624,-0.29467 2.44666,-0.41867 0.28667,-0.0427 0.572,-0.0853 0.86,-0.124 0.96267,-0.13333 1.93334,-0.24933 2.91467,-0.33867 l 0.176,-0.02 c 0.91467,-0.0813 1.836,-0.14133 2.76533,-0.188 0.28134,-0.0133 0.568,-0.0187 0.85067,-0.0293 0.652,-0.024 1.30667,-0.0427 1.968,-0.0493 0.388,-0.004 0.77867,0 1.16933,0.003 0.48667,0.003 0.97467,0.008 1.46667,0.02 0.40667,0.0107 0.81733,0.028 1.228,0.0453 0.492,0.02 0.98533,0.0453 1.48133,0.0747 0.432,0.0267 0.86534,0.0573 1.29867,0.092 0.43733,0.0333 0.876,0.0707 1.316,0.11334 0.44933,0.0413 0.90133,0.0893 1.35467,0.14 0.44266,0.048 0.88533,0.1 1.33066,0.15733 0.476,0.06 0.95467,0.12667 1.43467,0.196 0.38533,0.056 0.76933,0.112 1.156,0.17467 0.50133,0.0787 1.00667,0.16533 1.51067,0.25466 0.38266,0.0667 0.764,0.13334 1.148,0.20534 0.284,0.0533 0.568,0.11466 0.852,0.172 1.468,0.292 2.94533,0.61333 4.43733,0.98533 l 0.18533,0.0493 c 1.41867,0.35467 2.84934,0.75467 4.288,1.18267 0.23067,0.068 0.46,0.13333 0.692,0.204 1.36,0.41333 2.72934,0.864 4.10667,1.34267 0.288,0.10133 0.576,0.204 0.864,0.30666 1.412,0.504 2.83067,1.03067 4.26,1.60267 l 0.0693,0.0307 c 1.37467,0.55066 2.76,1.144 4.14934,1.75866 0.304,0.13467 0.608,0.268 0.91333,0.40667 1.38267,0.624 2.772,1.27733 4.16933,1.964 0.22667,0.112 0.45334,0.22933 0.68,0.34267 1.27734,0.63866 2.56267,1.304 3.852,1.996 0.26934,0.14533 0.53734,0.284 0.808,0.43066 1.148,0.62534 2.3,1.26667 3.456,1.93334 0.91734,0.52933 1.82667,1.09333 2.74,1.644 0.90267,0.544 1.80534,1.08933 2.704,1.65466 0.70134,0.44134 1.39734,0.89867 2.09467,1.352 0.93333,0.60534 1.86533,1.216 2.792,1.844 0.68933,0.46667 1.376,0.94534 2.06267,1.424 0.95066,0.66267 1.89866,1.336 2.844,2.02134 0.67066,0.488 1.34133,0.98 2.00933,1.47866 1.004,0.74934 2.00133,1.512 2.99733,2.28534 0.63067,0.48933 1.26134,0.97733 1.88934,1.476 1.14666,0.91466 2.28666,1.84933 3.42133,2.79466 0.496,0.412 0.99467,0.81334 1.48933,1.232 1.632,1.384 3.252,2.79467 4.85867,4.24 0.21867,0.196 0.43333,0.40267 0.65067,0.60134 1.39066,1.26133 2.77066,2.544 4.14,3.84933 0.53866,0.51333 1.07066,1.04133 1.60666,1.56 1.03467,1.008 2.06534,2.02267 3.08667,3.05333 0.592,0.59734 1.17867,1.19867 1.76533,1.80267 0.932,0.96133 1.85734,1.932 2.77734,2.91333 0.58266,0.61867 1.164,1.23867 1.74133,1.86667 0.92,1.00133 1.832,2.016 2.73867,3.036 0.53866,0.60267 1.07866,1.20267 1.612,1.81333 1.004,1.14934 1.99599,2.31734 2.98399,3.49067 0.40934,0.48667 0.82667,0.964 1.23467,1.456 1.42933,1.72267 2.84267,3.46667 4.236,5.23333 0.24133,0.30667 0.476,0.62 0.71733,0.92934 1.30934,1.67466 2.60134,3.36933 3.87734,5.08133 0.552,0.74267 1.10266,1.48667 1.648,2.23467 0.55333,0.75866 1.104,1.51866 1.65066,2.28266 0.62134,0.87067 1.236,1.74534 1.84934,2.62533 0.536,0.768 1.07066,1.53734 1.6,2.312 0.44266,0.648 0.87733,1.304 1.31333,1.956 1.34667,2.00667 2.67067,4.03067 3.968,6.07467 0.204,0.324 0.416,0.64133 0.61867,0.964 1.44533,2.3 2.85333,4.62667 4.23466,6.968 0.48,0.81333 0.95467,1.62933 1.42667,2.448 0.476,0.824 0.95067,1.648 1.41733,2.476 0.528,0.936 1.04667,1.87733 1.564,2.81867 0.45734,0.83333 0.916,1.66666 1.36534,2.50533 0.404,0.75467 0.79733,1.512 1.19466,2.268 0.724,1.38 1.43734,2.764 2.13867,4.15333 0.39333,0.77867 0.78533,1.55867 1.17067,2.34 0.552,1.12134 1.09333,2.24667 1.63066,3.37467 0.40134,0.84 0.80134,1.67867 1.19334,2.52 0.46266,0.99867 0.916,2.00133 1.36666,3.004 0.40534,0.9 0.812,1.8 1.20667,2.70267 0.40667,0.928 0.80133,1.86 1.19733,2.792 0.39734,0.93866 0.796,1.876 1.18267,2.816 0.39467,0.95733 0.776,1.91733 1.15733,2.87733 0.37067,0.92933 0.74134,1.85733 1.1,2.78933 0.38,0.98534 0.74667,1.97334 1.11334,2.96134 0.34,0.916 0.68133,1.83066 1.01066,2.748 0.39067,1.088 0.76534,2.18 1.14,3.27066 0.296,0.86267 0.59867,1.72267 0.884,2.58667 0.392,1.17733 0.76267,2.35867 1.13467,3.53867 0.25067,0.79333 0.50933,1.584 0.752,2.37733 0.43333,1.42267 0.84133,2.848 1.24667,4.272 0.18,0.63333 0.37466,1.26533 0.54933,1.89867 0.996,0.264 1.99733,0.552 3.00533,0.85866 1.20934,0.36667 2.42934,0.768 3.656,1.196 0.35067,0.12267 0.704,0.25734 1.056,0.38534 0.86934,0.31333 1.74134,0.64133 2.61867,0.98533 0.436,0.172 0.87467,0.35067 1.31333,0.53067 0.808,0.33066 1.61867,0.67466 2.432,1.03066 0.436,0.192 0.872,0.38134 1.31067,0.58 0.88667,0.404 1.77867,0.82667 2.67333,1.26 0.34667,0.168 0.69067,0.32667 1.04,0.5 1.23734,0.616 2.48267,1.25734 3.73334,1.93334 1.08133,0.58533 2.16666,1.18933 3.256,1.81866 0.776,0.448 1.544,0.92267 2.31466,1.388 0.75867,0.45734 1.51734,0.91467 2.27067,1.39067 0.59333,0.37333 1.18267,0.76 1.772,1.14267 0.784,0.50933 1.56533,1.02266 2.344,1.548 0.584,0.396 1.16533,0.80133 1.74533,1.20533 0.79867,0.55733 1.596,1.12133 2.388,1.69733 0.56934,0.412 1.136,0.83067 1.70134,1.252 0.84266,0.62934 1.68133,1.26934 2.516,1.91867 0.53466,0.41467 1.07066,0.82933 1.60266,1.252 0.95734,0.764 1.908,1.54267 2.85467,2.33067 0.428,0.356 0.85733,0.704 1.28267,1.06266 1.37333,1.16534 2.73866,2.35334 4.09066,3.56934 0.16534,0.148 0.32667,0.304 0.49067,0.45333 1.192,1.08 2.37333,2.18 3.54667,3.29733 0.452,0.432 0.89733,0.87334 1.34666,1.31067 0.87467,0.85067 1.74534,1.708 2.60934,2.57867 0.49733,0.50133 0.99066,1.00933 1.484,1.51866 0.784,0.808 1.56266,1.624 2.336,2.448 0.49333,0.52667 0.988,1.052 1.476,1.584 0.77466,0.84134 1.54133,1.696 2.30533,2.55467 0.45467,0.51067 0.912,1.01733 1.364,1.53467 0.84533,0.96666 1.67867,1.95066 2.51067,2.93733 0.35066,0.41733 0.70666,0.82533 1.05466,1.24666 1.2,1.44534 2.38667,2.908 3.556,4.392 0.184,0.232 0.36267,0.472 0.54533,0.70534 1.116,1.428 2.21734,2.872 3.304,4.332 0.476,0.63733 0.948,1.27866 1.41734,1.92133 0.45866,0.62933 0.91733,1.26133 1.37066,1.89467 0.52934,0.74133 1.052,1.48666 1.57334,2.23466 0.444,0.636 0.888,1.27467 1.32666,1.916 0.36134,0.52934 0.716,1.064 1.07334,1.59734 1.09733,1.63466 2.17733,3.28666 3.236,4.952 0.212,0.33333 0.42933,0.66133 0.63866,0.99466 1.21067,1.92267 2.38934,3.86667 3.54534,5.82534 0.41333,0.69733 0.82,1.4 1.224,2.10133 0.41066,0.70933 0.82133,1.41867 1.22266,2.13333 0.44267,0.78134 0.87334,1.56667 1.30534,2.352 0.39466,0.71867 0.79066,1.43734 1.17866,2.16 0.32667,0.61067 0.64534,1.22667 0.968,1.84134 0.62267,1.18533 1.23734,2.37466 1.83867,3.56933 0.33333,0.66 0.664,1.32 0.98933,1.98133 0.468,0.94667 0.92534,1.89734 1.37867,2.848 0.34,0.712 0.67733,1.424 1.00933,2.13867 0.39067,0.84133 0.77467,1.68667 1.15467,2.532 0.34133,0.76 0.68267,1.52 1.016,2.28133 0.34133,0.78 0.67333,1.56267 1.00533,2.34534 0.336,0.79066 0.67067,1.58266 0.99734,2.376 0.33066,0.804 0.652,1.61066 0.97333,2.416 0.31067,0.78533 0.624,1.56933 0.92667,2.356 0.32,0.83333 0.63066,1.668 0.94,2.50266 0.28666,0.77067 0.57333,1.54134 0.85066,2.31334 0.32667,0.912 0.64,1.82533 0.95467,2.73866 0.25067,0.73334 0.50667,1.46534 0.74933,2.19734 0.324,0.98 0.63334,1.96 0.94267,2.94 0.21467,0.68133 0.436,1.36266 0.64533,2.044 0.34534,1.14133 0.67467,2.28533 1,3.42666 0.17467,0.61334 0.36134,1.22667 0.53067,1.84 l 28.144,16.248 c 1.064,0.61467 2.12133,1.26 3.17333,1.92667 l 0.19867,0.12133 c 1.028,0.65334 2.04933,1.336 3.064,2.036 0.344,0.23867 0.68667,0.48934 1.03067,0.73334 0.68,0.48133 1.3587,0.968 2.0333,1.47066 0.4107,0.30667 0.8187,0.62267 1.228,0.936 0.6067,0.468 1.2147,0.94 1.816,1.42267 0.44,0.35333 0.8774,0.712 1.3147,1.07467 0.576,0.47466 1.1467,0.95733 1.7173,1.44666 0.448,0.38667 0.8947,0.776 1.34,1.168 0.5574,0.496 1.112,0.99867 1.664,1.50534 0.444,0.40932 0.8867,0.82002 1.3267,1.23602 0.56,0.5306 1.1147,1.0693 1.668,1.612 0.408,0.4013 0.8173,0.8013 1.2213,1.208 0.5734,0.5773 1.1387,1.1666 1.704,1.7573 0.372,0.3893 0.7467,0.7747 1.1147,1.1707 0.6547,0.6986 1.3,1.4133 1.9413,2.1306 0.2587,0.288 0.5214,0.5707 0.7774,0.8614 0.9013,1.024 1.7933,2.064 2.672,3.1213 0.1333,0.16 0.2626,0.3267 0.396,0.488 0.7466,0.9067 1.4866,1.8187 2.2133,2.7453 0.9213,1.1734 1.8293,2.364 2.7187,3.5694 l 0.055,0.073 c 1.2706,1.7226 2.496,3.4853 3.6986,5.2666 0.284,0.42 0.5707,0.8387 0.8507,1.2627 0.4333,0.656 0.8573,1.316 1.2813,1.9787 0.38,0.5933 0.76,1.1866 1.1334,1.788 0.416,0.668 0.8213,1.3453 1.2293,2.0213 0.3347,0.5587 0.672,1.1173 1,1.68 0.968,1.6547 1.908,3.3267 2.8133,5.016 0.332,0.6173 0.652,1.2387 0.9747,1.86 0.3387,0.652 0.6813,1.3027 1.0107,1.9573 0.4626,0.9227 0.9133,1.852 1.3586,2.7827 0.144,0.2987 0.2934,0.5973 0.4347,0.8987 0.564,1.2 1.1107,2.4066 1.6427,3.6186 0.14,0.32 0.2746,0.6427 0.412,0.9627 0.388,0.9013 0.768,1.8027 1.1373,2.7067 0.168,0.4133 0.3333,0.8266 0.4973,1.2386 0.3467,0.8707 0.6827,1.7454 1.012,2.6187 0.14,0.3747 0.284,0.7493 0.4214,1.1227 0.4213,1.1506 0.8266,2.3013 1.216,3.456 l 0.1013,0.2906 c 0.42,1.2507 0.816,2.5027 1.196,3.7574 0.1227,0.4013 0.2347,0.8026 0.3533,1.2053 0.2534,0.864 0.5027,1.7293 0.736,2.5947 0.1294,0.4773 0.252,0.9533 0.376,1.4306 0.2094,0.804 0.4094,1.6107 0.6027,2.4147 0.1133,0.4773 0.2253,0.9533 0.3333,1.4307 0.1854,0.8266 0.3614,1.6546 0.5294,2.4813 0.091,0.4373 0.1826,0.8747 0.2666,1.3107 0.2094,1.0893 0.4014,2.1746 0.5787,3.2586 0.024,0.152 0.053,0.3027 0.079,0.4534 0.1946,1.2346 0.364,2.4653 0.516,3.692 0.043,0.3493 0.077,0.696 0.116,1.0453 0.1,0.8787 0.1906,1.756 0.2666,2.6307 0.037,0.42 0.069,0.84 0.1014,1.2586 0.06,0.8294 0.1106,1.6574 0.1506,2.4814 0.019,0.3973 0.041,0.796 0.056,1.192 0.041,1.172 0.069,2.3386 0.065,3.4973 l -0.015,5.1053 c 0,1.2174 -0.036,2.408 -0.089,3.5827 -0.015,0.3293 -0.041,0.6493 -0.06,0.976 -0.048,0.8067 -0.1013,1.608 -0.1706,2.3947 -0.041,0.4546 -0.092,0.9 -0.14,1.3466 -0.072,0.6654 -0.148,1.324 -0.2374,1.972 -0.065,0.48 -0.1373,0.9507 -0.212,1.4214 -0.095,0.5973 -0.196,1.1866 -0.3053,1.7706 -0.099,0.524 -0.204,1.044 -0.3133,1.5573 -0.1134,0.5254 -0.2307,1.0454 -0.356,1.5587 -0.1467,0.604 -0.3027,1.1973 -0.4654,1.784 -0.128,0.4587 -0.256,0.9147 -0.3946,1.3627 -0.2147,0.7053 -0.4467,1.392 -0.6854,2.0706 -0.1306,0.3654 -0.2546,0.736 -0.3893,1.0947 -0.4333,1.1387 -0.8947,2.248 -1.3947,3.308 -0.3866,0.82 -0.7893,1.6187 -1.2146,2.3907 l -0.01,0.015 c -0.436,0.7907 -0.8947,1.552 -1.372,2.292 -0.095,0.148 -0.196,0.2894 -0.2934,0.4347 -0.3626,0.5467 -0.7346,1.0813 -1.1186,1.5987 -0.1547,0.2093 -0.3134,0.4146 -0.472,0.6186 -0.364,0.4694 -0.7374,0.9254 -1.1187,1.3694 -0.148,0.1693 -0.2893,0.344 -0.44,0.5106 -0.5253,0.5894 -1.064,1.1574 -1.6213,1.7 l -0.244,0.224 c -0.4854,0.4614 -0.984,0.9067 -1.4947,1.3347 -0.1853,0.156 -0.3747,0.3053 -0.5627,0.4573 -0.4373,0.3494 -0.8813,0.6867 -1.3346,1.0107 -0.188,0.1347 -0.372,0.272 -0.5627,0.4027 -0.6307,0.432 -1.272,0.848 -1.932,1.2306 l 9.3973,-5.4613 c 0.66,-0.3827 1.3,-0.7973 1.932,-1.2307 0.1907,-0.1293 0.3747,-0.268 0.5627,-0.4013 0.4533,-0.3253 0.8973,-0.6627 1.3347,-1.012 0.188,-0.152 0.3773,-0.3013 0.564,-0.4573 0.5093,-0.4267 1.008,-0.872 1.4933,-1.3347 l 0.2427,-0.224 c 0.5573,-0.5413 1.0973,-1.1107 1.6226,-1.6987 0.1507,-0.1666 0.292,-0.3413 0.4387,-0.5106 0.3813,-0.4454 0.756,-0.9014 1.12,-1.372 0.1587,-0.2027 0.3173,-0.408 0.472,-0.616 0.384,-0.5187 0.756,-1.052 1.1187,-1.6 0.097,-0.1454 0.1986,-0.2854 0.2933,-0.4347 l 0.089,-0.128 c 0.4453,-0.7 0.872,-1.42 1.2827,-2.164 l 0.01,-0.013 c 0.4067,-0.7387 0.796,-1.4974 1.1667,-2.2787 l 0.049,-0.1133 c 0.5,-1.0614 0.9613,-2.168 1.3946,-3.308 l 0.1187,-0.284 c 0.099,-0.2614 0.176,-0.5454 0.2693,-0.8107 0.24,-0.6787 0.472,-1.3653 0.6867,-2.0706 0.057,-0.1854 0.128,-0.3587 0.1827,-0.548 0.077,-0.264 0.1373,-0.5467 0.212,-0.8134 0.1626,-0.588 0.3186,-1.1826 0.4666,-1.788 0.059,-0.2453 0.1307,-0.4773 0.188,-0.7266 0.061,-0.2694 0.108,-0.5534 0.1667,-0.8267 0.1093,-0.5147 0.2147,-1.0347 0.3133,-1.5613 0.051,-0.2694 0.1134,-0.5267 0.16,-0.8 0.056,-0.316 0.095,-0.648 0.1454,-0.9694 0.075,-0.4706 0.1466,-0.9413 0.212,-1.4213 0.033,-0.2427 0.077,-0.476 0.108,-0.7227 0.051,-0.408 0.085,-0.8346 0.1293,-1.2493 0.048,-0.4467 0.099,-0.892 0.14,-1.3467 0.016,-0.1826 0.041,-0.356 0.056,-0.54 0.049,-0.608 0.079,-1.2346 0.1133,-1.8546 0.02,-0.3267 0.047,-0.6467 0.061,-0.9774 l 0.015,-0.2426 c 0.044,-1.0334 0.069,-2.084 0.075,-3.1507 v -0.188 l 0.015,-5.1053 c 0,-0.9747 -0.011,-1.956 -0.04,-2.94" id="path23" style="fill:#5d658c;fill-opacity:1;fill-rule:nonzero;stroke:none;stroke-width:0.133333"></path>
    <path d="m 734.95465,680.16936 c 50.40534,29.10133 93.30933,90.23199 110.096,151.08933 8.324,2.20933 17.07067,5.868 26.09467,11.07866 42.496,24.53467 78.67466,76.10933 92.79466,127.42133 l 28.144,16.248 c 35.98402,20.77602 65.05462,71.12672 64.93602,112.47602 l -0.015,5.1053 c -0.1173,41.3493 -29.376,58.024 -65.36135,37.248 L 600.10266,914.78002 c -35.97467,-20.772 -65.04534,-71.12267 -64.928,-112.47067 l 0.0147,-5.10666 c 0.005,-2.12267 0.10534,-4.16134 0.256,-6.14134 -0.13866,-2.37333 -0.22533,-4.72533 -0.21866,-7.05466 0.14533,-51.44267 36.55466,-72.20133 81.332,-46.348 4.97466,-67.47733 56.13333,-93.436 118.39599,-57.48933" id="path24" style="fill:#fbefed;fill-opacity:1;fill-rule:nonzero;stroke:none;stroke-width:0.133333"></path>
    <g id="g1" transform="matrix(1.6980545,0,0,1.6980545,-604.74901,-292.71081)">
      <path d="m 782.08811,473.63426 -0.0119,-0.21699 v -0.0204 l -0.002,-0.0453 -0.0225,-0.28254 -0.0317,-0.28931 -0.0429,-0.29385 -0.0521,-0.29836 -0.0136,-0.0746 -0.005,-0.0271 -0.0429,-0.20343 -0.0724,-0.30739 -0.0814,-0.31645 -0.0927,-0.31643 -0.0746,-0.23055 -0.007,-0.0249 -0.0181,-0.052 -0.10849,-0.31192 -0.11528,-0.3074 -0.11985,-0.30061 -0.13104,-0.30289 -0.086,-0.19212 -88.07018,-191.91046 -0.0453,-0.0995 -0.15139,-0.31192 -0.18081,-0.3526 -0.29836,-0.53569 -0.27801,-0.44076 -0.0995,-0.16054 -0.11986,-0.18986 -0.34582,-0.48597 -0.25089,-0.32999 -0.22828,-0.28255 -0.18761,-0.21924 -0.0119,-0.0119 -0.0293,-0.0339 -0.2328,-0.25767 -0.24186,-0.25768 -0.25767,-0.25315 -0.26671,-0.24638 -0.27124,-0.23733 -0.27123,-0.21924 -0.26673,-0.20569 -0.26218,-0.18535 -0.25768,-0.17178 -0.25316,-0.15375 -0.0588,-0.0339 -0.18986,-0.10629 -0.24638,-0.12884 -0.24637,-0.11527 -0.24411,-0.10392 -0.22603,-0.086 h -0.005 l -0.0136,-0.007 -0.24412,-0.0792 -0.24863,-0.0678 -0.2509,-0.0588 -0.25993,-0.0407 -0.0859,-0.008 -0.0317,-0.005 -0.15139,-0.0136 -0.28252,-0.0119 -0.30289,0.0152 -0.28254,0.0407 -0.0249,0.002 -0.0317,0.005 -0.41364,0.1107 -0.49047,0.22829 -47.71034,27.72706 c 0.28931,-0.16952 0.6035,-0.28027 0.93576,-0.34357 l 0.0225,-0.005 c 0.32548,-0.0564 0.66678,-0.0656 1.01939,-0.0271 l 0.0317,0.005 c 0.35713,0.0385 0.72781,0.12664 1.10303,0.25995 l 0.002,0.002 c 0.38198,0.13342 0.76849,0.31418 1.155,0.53795 0.91542,0.52891 1.83311,1.29515 2.66942,2.25353 l 0.008,0.0136 c 0.40007,0.45883 0.77755,0.96739 1.13241,1.50986 l 0.10171,0.15817 c 0.34583,0.54698 0.67131,1.12336 0.95385,1.74042 l 78.35543,170.74052 -24.68244,14.34384 c -0.36389,0.2102 -0.66,0.53343 -0.9222,0.8996 l -0.11748,0.11528 -0.22602,0.41136 -0.008,0.0225 -0.008,0.0203 -0.12663,0.30061 -0.10629,0.31645 -0.0792,0.30965 -0.0293,0.13561 -0.007,0.0339 -0.0249,0.12426 -0.0429,0.28931 -0.0293,0.28932 -0.0181,0.2848 -0.007,0.29157 v 0.0181 l -0.39103,137.99109 c -0.002,0.54473 -0.0293,1.0646 -0.0746,1.5709 l -0.0136,0.13341 c -0.0475,0.4611 -0.11308,0.90638 -0.19665,1.33358 l -0.0339,0.16952 c -0.0836,0.41364 -0.18761,0.80918 -0.3074,1.18891 l -0.07,0.21021 c -0.11748,0.35713 -0.25089,0.69618 -0.3978,1.02166 l -0.0475,0.10629 c -0.16952,0.36844 -0.35939,0.70974 -0.56734,1.03297 -0.29158,0.45657 -0.63062,0.85439 -0.99001,1.22507 l -0.26671,0.25767 c -0.37522,0.34583 -0.77076,0.6668 -1.20474,0.91769 l 47.71259,-27.72932 c 0.43397,-0.2509 0.82954,-0.5696 1.20474,-0.91768 l 0.26671,-0.25767 c 0.35939,-0.36843 0.69618,-0.7685 0.99001,-1.22509 l 0.0153,-0.0181 c 0.19664,-0.30741 0.3752,-0.63289 0.53794,-0.97645 l 0.0153,-0.0361 0.0429,-0.10392 c 0.0995,-0.21924 0.1989,-0.4385 0.28479,-0.67356 l 0.11748,-0.35261 0.0678,-0.20795 0.0656,-0.19212 c 0.0678,-0.23508 0.13104,-0.47919 0.18986,-0.73008 l 0.0543,-0.26671 0.0339,-0.16953 0.0521,-0.2622 c 0.0385,-0.22151 0.0724,-0.44979 0.10171,-0.68261 l 0.0407,-0.38877 0.0136,-0.13561 0.0153,-0.16274 c 0.0181,-0.22152 0.0339,-0.44529 0.0429,-0.67357 0.008,-0.22829 0.0136,-0.45659 0.0153,-0.69165 v -0.0407 l 0.30063,-105.76831 35.58611,-20.68171 c 0.22827,-0.13104 0.43397,-0.30063 0.62157,-0.495 l 0.16731,-0.2057 0.26446,-0.32774 0.0971,-0.17405 0.0588,-0.10391 0.0768,-0.13562 0.15139,-0.36164 0.11307,-0.33905 0.002,-0.005 0.002,-0.007 0.0746,-0.29158 0.061,-0.30289 0.0429,-0.28931 0.0153,-0.14917 0.005,-0.0317 0.008,-0.10171 0.0181,-0.28705 0.007,-0.27576 -0.002,-0.28027" id="path28" style="fill:#fbefed;fill-opacity:1;fill-rule:nonzero;stroke:none;stroke-width:0.226029"></path>
      <path d="m 640.30876,299.36089 c 1.83762,1.06009 3.67073,3.07401 4.86642,5.6756 l 88.06793,191.90819 c 2.85926,6.22713 -0.0119,10.97826 -4.92293,8.14385 l -25.18874,-14.54501 c -3.33846,-1.92577 -6.02596,-0.3752 -6.03725,3.44018 l -0.39104,137.99109 c -0.0249,9.07961 -6.46218,12.72546 -14.34383,8.17548 l -85.89126,-49.59089 c -7.90199,-4.55902 -14.2783,-15.60508 -14.25343,-24.68469 l 0.39103,-137.99109 c 0.0119,-3.81312 -2.67619,-8.47159 -5.9943,-10.38607 l -25.20909,-14.55404 c -4.90937,-2.83667 -7.72794,-10.86751 -4.84381,-13.78102 l 88.86806,-89.75412 c 1.20474,-1.21603 3.04462,-1.10979 4.88224,-0.0475" id="path29" style="fill:#8590c8;fill-opacity:1;fill-rule:nonzero;stroke:none;stroke-width:0.226029"></path>
    </g>
  </g>
</svg>
